<?xml version="1.0" encoding="utf-8"?>
<svg id="svg2" viewBox="0 0 500 500" xmlns="http://www.w3.org/2000/svg">
  <desc>Source: openclipart.org/detail/209545</desc>
  <g display="none" transform="matrix(5.230837, 0, 0, 7.726646, -14.570997, -119.083025)" style="">
    <ellipse display="inline" opacity="0.47" fill="#ffd300" stroke="#ffd300" stroke-miterlimit="10" cx="51.7" cy="55.1" rx="34" ry="33.3"/>
    <path display="inline" opacity="0.47" fill="none" stroke="#ffd300" stroke-width="0.8664" stroke-miterlimit="10" d="M17.7,56.8   c67.9,0,67.9,0,67.9,0l0,0"/>
  </g>
  <g fill="#ffd300" transform="matrix(5.265447, 0, 0, 7.990265, -14.685212, -125.52022)" style="">
    <g fill="#ffd300">
      <ellipse transform="matrix(-0.9447 -0.3278 0.3278 -0.9447 146.4267 77.7368)" fill="none" stroke="#ffd300" stroke-width="0.6237" stroke-linecap="round" stroke-miterlimit="10" cx="79.8" cy="26.5" rx="0.6" ry="2.4"/>
      <polygon points="78.5,28.4 73.3,45.2 79.7,28.8   "/>
    </g>
    <g fill="#ffd300">
      <g fill="#ffd300">
        <path d="M47.2,32.2c0,0-0.2,0.1-0.5,0.3c-0.3,0.2-0.8,0.4-1.4,0.6c-0.6,0.2-1.3,0.3-2.1,0.4c-0.8,0.1-1.6,0.2-2.4,0.2     c-0.8,0-1.6,0.1-2.4,0.1c-0.8,0.1-1.5,0.1-2.1,0.2c-0.6,0.1-1.1,0.2-1.5,0.3c-0.4,0.1-0.6,0.1-0.6,0.1s0.2-0.1,0.5-0.4     c0.2-0.1,0.3-0.2,0.6-0.4c0.2-0.1,0.5-0.3,0.8-0.4c0.6-0.3,1.3-0.5,2.1-0.6c0.8-0.2,1.6-0.2,2.5-0.3c0.8,0,1.7-0.1,2.4-0.1     c0.8,0,1.5,0,2.1-0.1c0.6,0,1.1,0,1.5-0.1C47,32.2,47.2,32.2,47.2,32.2z"/>
      </g>
      <g fill="#ffd300">
        <path d="M36.3,35.6c0,0-0.4,0.4-1.2,0.8c-0.7,0.4-1.7,0.9-2.8,1.2c-1.1,0.3-2.1,0.6-3,0.6c-0.8,0.1-1.4,0-1.4,0s0.5-0.3,1.2-0.7     c0.7-0.4,1.8-0.8,2.8-1.1c1-0.3,2.1-0.6,2.9-0.7C35.7,35.6,36.3,35.6,36.3,35.6z"/>
      </g>
      <g fill="#ffd300">
        <path d="M34.5,39.5c0,0-0.1,0.2-0.4,0.5c-0.3,0.3-0.7,0.7-1.4,1c-0.7,0.3-1.5,0.5-2.3,0.5c-0.9,0.1-1.7,0-2.6,0.1l-0.6,0.1     c-0.2,0-0.4,0.1-0.6,0.1c-0.4,0.1-0.8,0.2-1.2,0.3c-0.8,0.2-1.4,0.5-2,0.8c-0.6,0.3-1.1,0.5-1.4,0.7c-0.3,0.2-0.5,0.3-0.5,0.3     s0.1-0.2,0.4-0.5c0.2-0.3,0.6-0.7,1.2-1.2c0.5-0.4,1.2-0.9,2.1-1.2c0.4-0.2,0.8-0.3,1.3-0.4c0.2-0.1,0.5-0.1,0.7-0.1     c0.2,0,0.4-0.1,0.7-0.1c0.9,0,1.8,0,2.6,0c0.8,0,1.5,0,2.1-0.1C33.7,40.1,34.5,39.5,34.5,39.5z"/>
      </g>
      <g fill="#ffd300">
        <path d="M19,46.1c0,0-0.1,0.5-0.3,1.1c-0.1,0.3-0.2,0.7-0.3,1.1c-0.1,0.4-0.2,0.8-0.4,1.2c-0.1,0.4-0.3,0.8-0.4,1.2     c-0.1,0.4-0.2,0.7-0.3,1c-0.2,0.6-0.4,1.1-0.4,1.1s-0.2-0.4-0.3-1.1c-0.1-0.3-0.1-0.8,0-1.2c0-0.2,0-0.4,0.1-0.7     c0-0.2,0.1-0.4,0.2-0.7c0.2-0.4,0.3-0.9,0.6-1.2c0.2-0.4,0.5-0.7,0.7-1C18.5,46.3,19,46.1,19,46.1z"/>
      </g>
      <g fill="#ffd300">
        <path d="M23.7,45.3c0,0-0.1,0.1-0.3,0.3c-0.2,0.2-0.5,0.4-1,0.5c-0.4,0.2-1,0.3-1.6,0.3c-0.3,0-0.6,0-0.9-0.1     c-0.3-0.1-0.6-0.1-0.9-0.2c-0.6-0.2-1.1-0.4-1.5-0.5c-0.5-0.1-0.8-0.1-1.2,0c-0.4,0.1-0.6,0.3-0.8,0.5c-0.2,0.2-0.2,0.3-0.2,0.3     c0,0-0.1-0.1,0-0.4c0-0.3,0.3-0.7,0.7-1c0.4-0.3,1-0.5,1.7-0.5c0.6,0,1.2,0.2,1.8,0.4c0.3,0.1,0.5,0.2,0.8,0.2     c0.2,0.1,0.5,0.1,0.7,0.2c0.5,0.1,1,0.1,1.4,0.1C23.1,45.3,23.7,45.3,23.7,45.3z"/>
      </g>
      <g fill="#ffd300">
        <path d="M18.8,47.3c0,0-0.4,0.3-1.1,0.7c-0.3,0.2-0.7,0.4-1.1,0.6c-0.4,0.2-0.8,0.4-1.3,0.6c-0.4,0.2-0.9,0.4-1.3,0.6     c-0.4,0.2-0.8,0.4-1.1,0.5c-0.7,0.3-1.2,0.4-1.2,0.4s0.3-0.5,0.8-1c0.3-0.3,0.6-0.6,1-0.8c0.4-0.3,0.8-0.5,1.3-0.8     c0.5-0.2,0.9-0.4,1.4-0.5c0.5-0.1,0.9-0.2,1.3-0.2C18.3,47.2,18.8,47.3,18.8,47.3z"/>
      </g>
      <g fill="#ffd300">
        <path d="M19.5,49.4c0,0-0.7,0.4-1.7,0.9c-1,0.5-2.3,1.2-3.6,1.9c-0.6,0.4-1.2,0.8-1.7,1.3c-0.5,0.5-1,0.9-1.6,1.2     c-0.5,0.3-1,0.5-1.4,0.5c-0.2,0-0.3,0-0.4,0c-0.1,0-0.1,0-0.1,0s0.2,0,0.5-0.2c0.3-0.1,0.6-0.4,1-0.8c0.4-0.4,0.7-0.9,1.2-1.5     c0.2-0.3,0.5-0.6,0.8-0.8c0.3-0.3,0.6-0.5,1-0.7c0.7-0.4,1.4-0.8,2.1-1c0.7-0.3,1.3-0.4,1.9-0.5C18.7,49.5,19.5,49.4,19.5,49.4z"/>
      </g>
      <g fill="#ffd300">
        <path d="M15.2,53.9c0,0-0.3,0.5-0.9,1c-0.2,0.1-0.3,0.3-0.5,0.4c-0.2,0.1-0.4,0.3-0.6,0.4c-0.5,0.2-1,0.4-1.5,0.6     c-1,0.3-1.9,0.5-2.5,0.8C8.5,57.4,8,57.7,8,57.7s0-0.1,0.1-0.4c0.1-0.2,0.3-0.5,0.6-0.9c0.3-0.3,0.7-0.6,1.1-0.9     c0.5-0.3,1-0.4,1.5-0.6c0.5-0.1,1-0.3,1.4-0.4c0.2-0.1,0.4-0.1,0.6-0.2c0.2-0.1,0.4-0.1,0.6-0.2C14.6,54,15.2,53.9,15.2,53.9z"/>
      </g>
      <g fill="#ffd300">
        <path d="M12.7,58.3c0,0-0.5,0.3-1.3,0.6c-0.8,0.3-1.7,0.7-2.7,1.1c-1,0.3-2,0.7-2.7,1c-0.7,0.3-1.2,0.6-1.2,0.6s0-0.1,0.2-0.4     c0.1-0.2,0.3-0.5,0.6-0.8c0.3-0.3,0.7-0.6,1.2-0.9c0.5-0.3,1-0.5,1.5-0.7c0.5-0.2,1.1-0.3,1.6-0.4c0.5-0.1,1-0.1,1.4-0.2     C12.2,58.2,12.7,58.3,12.7,58.3z"/>
      </g>
      <g fill="#ffd300">
        <path d="M11.6,61.8c0,0-0.3,0.5-1,0.8c-0.3,0.2-0.7,0.4-1.1,0.6c-0.2,0.1-0.4,0.2-0.6,0.3c-0.2,0.1-0.4,0.2-0.6,0.3     c-0.8,0.4-1.6,0.9-2.2,1.3c-0.6,0.4-1.1,0.7-1.1,0.7s0.1-0.5,0.6-1.2c0.2-0.3,0.5-0.7,0.9-1c0.4-0.3,0.8-0.6,1.3-0.9     c0.2-0.1,0.5-0.2,0.7-0.3c0.3-0.1,0.5-0.2,0.7-0.2C9.6,62,10,62,10.4,61.9C11.1,61.8,11.6,61.8,11.6,61.8z"/>
      </g>
      <g fill="#ffd300">
        <path d="M11.8,65.7c0,0-0.5,0.4-1.2,1c-0.7,0.6-1.7,1.3-2.7,2c-0.5,0.4-1,0.7-1.4,1.1C6,70,5.6,70.4,5.1,70.6     c-0.4,0.3-0.8,0.4-1.1,0.5c-0.3,0-0.5,0-0.5,0s0.2-0.1,0.4-0.2c0.2-0.2,0.5-0.4,0.7-0.8c0.3-0.4,0.6-0.8,1.1-1.2     c0.4-0.4,0.9-0.8,1.4-1.2c0.5-0.4,1.1-0.7,1.6-1c0.5-0.3,1-0.5,1.5-0.6C11.1,65.7,11.8,65.7,11.8,65.7z"/>
      </g>
      <g fill="#ffd300">
        <path d="M10.5,71.2c0,0,0,0.1,0,0.3c0,0.2-0.1,0.5-0.3,0.7c-0.2,0.3-0.4,0.6-0.7,0.8c-0.3,0.3-0.7,0.4-1,0.6     c-0.4,0.2-0.7,0.3-1,0.4c-0.3,0.1-0.6,0.2-0.9,0.3c-0.3,0.1-0.5,0.2-0.6,0.3c-0.2,0.1-0.3,0.1-0.3,0.1s0-0.1,0.1-0.3     c0.1-0.2,0.2-0.4,0.4-0.7c0.4-0.5,1.1-1,1.8-1.3c0.3-0.2,0.7-0.3,1-0.4c0.3-0.1,0.6-0.3,0.8-0.4c0.2-0.1,0.4-0.2,0.6-0.4     C10.4,71.3,10.5,71.2,10.5,71.2z"/>
      </g>
      <g fill="#ffd300">
        <path d="M11.3,75.4c0,0,0.5-0.3,1.2-0.5c0.8-0.2,1.8-0.4,2.8-0.5c0.5,0,1.1-0.1,1.6,0.1c0.5,0.1,1.1,0.4,1.3,0.7     c0.3,0.2,0.5,0.4,0.7,0.5c0.2,0.1,0.3,0,0.3,0c0,0-0.1,0.1-0.3,0.2c-0.3,0.1-0.7,0-1-0.1c-0.4-0.1-0.7-0.2-1.1-0.2     c-0.4,0-0.9,0-1.4,0.1c-1,0.1-2.1,0.1-2.8,0C11.8,75.6,11.3,75.4,11.3,75.4z"/>
      </g>
      <g fill="#ffd300">
        <path d="M10,69.6c0,0,0.1-0.1,0.3-0.2c0.2-0.1,0.5-0.2,0.8-0.2c0.4,0,0.8,0.1,1.1,0.3c0.4,0.2,0.7,0.5,1.1,0.8     c0.3,0.3,0.6,0.7,0.8,1c0.2,0.3,0.3,0.6,0.5,0.9c0.2,0.5,0.6,0.8,0.6,0.8s-0.1,0-0.3,0c-0.2,0-0.5-0.1-0.8-0.3     c-0.3-0.2-0.6-0.5-0.8-0.7c-0.3-0.3-0.5-0.5-0.8-0.8c-0.5-0.5-1-1-1.5-1.2c-0.2-0.1-0.5-0.2-0.6-0.3C10.1,69.6,10,69.6,10,69.6z"/>
      </g>
      <g fill="#ffd300">
        <path d="M13.2,63.8c1.6,0.2,3.2,0.7,4.8,1.3c0.4,0.1,0.8,0.3,1.2,0.5c0.2,0.1,0.4,0.3,0.6,0.5c0.1,0.1,0.3,0.3,0.4,0.5     c0.3,0.3,0.5,0.6,0.8,0.9c0.2,0.3,0.5,0.4,0.7,0.5l2,0.6l-2,0.6c-0.8,0.2-1.6,0.4-2.4,0.4c-0.8,0-1.6-0.1-2.4-0.3     c-1.6-0.3-3-0.9-4.4-1.6c1.5,0.2,3.1,0.6,4.5,0.7c0.7,0.1,1.5,0.1,2.2,0.1c0.4,0,0.7-0.1,1.1-0.1c0.4-0.1,0.7-0.1,1-0.3l0,1.2     c-0.6-0.1-1-0.5-1.3-0.8c-0.3-0.3-0.6-0.7-0.8-1c-0.1-0.2-0.2-0.3-0.3-0.4c-0.1-0.1-0.2-0.2-0.4-0.3c-0.3-0.2-0.6-0.4-1-0.6     C16.1,65.2,14.7,64.5,13.2,63.8z"/>
      </g>
      <g fill="#ffd300">
        <path d="M17.3,73.5c0,0,0.4-0.1,1-0.2c0.3,0,0.6-0.1,1-0.1c0.4,0,0.7,0,1.1,0c0.7,0,1.5,0.1,2.1,0.2c0.6,0.1,1,0.2,1,0.2     s-0.3,0.3-0.9,0.5c-0.6,0.2-1.4,0.4-2.2,0.4c-0.4,0-0.8,0-1.2-0.1c-0.4-0.1-0.7-0.2-1-0.3C17.6,73.8,17.3,73.5,17.3,73.5z"/>
      </g>
      <g fill="#ffd300">
        <path d="M20.8,72.2c0,0,0.7-0.3,1.8-0.5c0.6-0.1,1.2-0.2,2-0.2c0.7,0,1.5,0,2.3,0.1c0.4,0.1,0.8,0.1,1.1,0.2     c0.4,0.1,0.7,0.2,1.1,0.3c0.7,0.2,1.3,0.5,1.8,0.7c1,0.5,1.6,1,1.6,1s-0.2,0-0.5-0.1c-0.3-0.1-0.8-0.2-1.3-0.3     c-0.5-0.1-1.2-0.2-1.9-0.4c-0.7-0.1-1.4-0.2-2.1-0.3c-0.7-0.1-1.4-0.2-2.1-0.3c-0.7-0.1-1.3-0.1-1.9-0.2c-0.6-0.1-1-0.1-1.4-0.1     C21,72.2,20.8,72.2,20.8,72.2z"/>
      </g>
      <g fill="#ffd300">
        <path d="M22.8,76.1c0,0,0.1,0,0.4-0.1c0.2,0,0.5-0.1,0.9-0.2c0.7-0.2,1.6-0.6,2.6-0.9c0.3-0.1,0.5-0.1,0.8-0.2     c0.3-0.1,0.5-0.1,0.8-0.1c0.5,0,1,0,1.4,0.1c0.8,0.1,1.3,0.3,1.3,0.3s-0.5,0.2-1.3,0.4c-0.4,0.1-0.8,0.2-1.2,0.3     c-0.4,0.1-0.9,0.3-1.4,0.4c-0.5,0.1-1,0.3-1.5,0.3c-0.5,0.1-1,0.1-1.4,0c-0.4,0-0.8-0.2-1-0.3C22.9,76.2,22.8,76.1,22.8,76.1z"/>
      </g>
      <g fill="#ffd300">
        <path d="M25.9,74.3c0,0,0.7-0.3,1.7-0.4c0.5-0.1,1.1-0.1,1.8-0.2c0.6,0,1.3,0,2,0.1c0.7,0.1,1.4,0.2,2,0.3     c0.6,0.1,1.2,0.3,1.7,0.5c1,0.4,1.6,0.7,1.6,0.7s-0.7,0-1.7,0c-0.5,0-1.1-0.1-1.7-0.1c-0.6,0-1.3-0.1-2-0.2     c-0.7-0.1-1.3-0.1-2-0.2c-0.6-0.1-1.2-0.1-1.7-0.2C26.6,74.4,25.9,74.3,25.9,74.3z"/>
      </g>
      <g fill="#ffd300">
        <path d="M32.6,76.7c0,0,0.6-0.1,1.6-0.2c0.5,0,1-0.1,1.5-0.1c0.5-0.1,1.1-0.2,1.6-0.4c0.5-0.2,1-0.4,1.5-0.7     c0.5-0.3,1-0.5,1.4-0.7c0.9-0.4,1.5-0.5,1.5-0.5s-0.4,0.5-1.1,1.1c-0.4,0.3-0.8,0.7-1.2,1c-0.5,0.4-1,0.7-1.7,1     c-1.3,0.5-2.7,0.3-3.6,0C33.2,77,32.6,76.7,32.6,76.7z"/>
      </g>
      <g fill="#ffd300">
        <path d="M35.2,74c0,0,0.6-0.1,1.6-0.2c1,0,2.2,0.1,3.5,0.3c1.2,0.2,2.5,0.6,3.4,0.9c0.9,0.3,1.5,0.7,1.5,0.7s-0.7,0.1-1.6,0     c-1,0-2.2-0.2-3.4-0.4c-1.2-0.2-2.5-0.5-3.4-0.8C35.8,74.3,35.2,74,35.2,74z"/>
      </g>
      <g fill="#ffd300">
        <path d="M42.9,76.1c0,0,0.1,0,0.3,0c0.2,0,0.5,0,0.8,0c0.3,0,0.7,0,1.1,0c0.4,0,0.8,0,1.2-0.1c0.4,0,0.8-0.1,1.2-0.1     c0.4-0.1,0.8-0.1,1.1-0.2c0.3-0.1,0.6-0.1,0.8-0.1c0.2,0,0.3,0,0.3,0s-0.3,0.4-0.8,0.8c-0.3,0.2-0.7,0.4-1.1,0.6     c-0.2,0.1-0.4,0.2-0.7,0.2c-0.2,0.1-0.5,0.1-0.7,0.1c-0.5,0-1,0-1.4,0c-0.4-0.1-0.8-0.2-1.2-0.4c-0.3-0.1-0.6-0.3-0.7-0.4     C43,76.1,42.9,76.1,42.9,76.1z"/>
      </g>
      <g fill="#ffd300">
        <path d="M51.3,74.7c0,0,0.4-0.2,1-0.3c0.6-0.1,1.4-0.1,2.2,0c0.8,0.1,1.6,0.4,2.1,0.7c0.6,0.3,0.9,0.6,0.9,0.6s-0.4,0.1-1,0.1     c-0.6,0-1.4-0.1-2.2-0.2c-0.4-0.1-0.8-0.1-1.1-0.2c-0.4-0.1-0.7-0.2-1-0.3C51.7,74.9,51.3,74.7,51.3,74.7z"/>
      </g>
      <g fill="#ffd300">
        <path d="M49.7,76.7c0,0,0.8-0.1,1.9-0.1c0.6,0,1.2,0,1.9,0c0.7,0,1.5,0,2.2,0c1.5,0.1,3,0.2,4.1,0.3c0.6,0.1,1,0.1,1.3,0.1     c0.3,0,0.5-0.1,0.5-0.1s-0.1,0.2-0.4,0.3c-0.3,0.2-0.8,0.3-1.4,0.4c-1.1,0.2-2.7,0.3-4.2,0.2c-1.5-0.1-3-0.3-4.2-0.5     C50.4,77,49.7,76.7,49.7,76.7z"/>
      </g>
      <g fill="#ffd300">
        <path d="M56.8,74.2c0,0,0.5-0.2,1.2-0.3c0.4-0.1,0.8-0.1,1.2-0.1c0.4,0,0.9,0.1,1.4,0.2c0.9,0.2,1.8,0.5,2.4,0.9     c0.6,0.3,1,0.7,1,0.7s-0.5,0-1.2,0c-0.7-0.1-1.6-0.2-2.4-0.3c-0.4-0.1-0.9-0.2-1.3-0.3c-0.4-0.1-0.8-0.2-1.1-0.3     C57.3,74.4,56.8,74.2,56.8,74.2z"/>
      </g>
      <g fill="#ffd300">
        <path d="M61,76.6c0,0,0.4-0.3,1.1-0.6c0.6-0.3,1.5-0.6,2.4-0.8c0.9-0.2,1.8-0.3,2.6-0.3c0.7,0,1.2,0.1,1.2,0.1s-0.4,0.3-1.1,0.6     c-0.6,0.3-1.5,0.6-2.4,0.8c-0.9,0.2-1.8,0.3-2.6,0.3C61.5,76.7,61,76.6,61,76.6z"/>
      </g>
      <g fill="#ffd300">
        <path d="M63.2,73.5c0,0,0.6-0.2,1.4-0.4c0.8-0.2,2-0.3,3.2-0.2c0.6,0.1,1.2,0.2,1.7,0.4c0.5,0.2,1,0.5,1.4,0.7     c0.4,0.3,0.6,0.5,0.8,0.7c0.2,0.2,0.2,0.3,0.2,0.3s-0.6-0.2-1.4-0.4c-0.4-0.1-0.9-0.2-1.3-0.3c-0.5-0.1-1-0.2-1.6-0.2     c-1.1-0.1-2.2-0.2-3-0.3C63.8,73.6,63.2,73.5,63.2,73.5z"/>
      </g>
      <g fill="#ffd300">
        <path d="M69.5,76.5c0,0,0.1,0,0.4-0.1c0.2-0.1,0.5-0.1,0.9-0.2c0.4-0.1,0.8-0.2,1.3-0.3c0.4-0.1,0.9-0.2,1.4-0.3     c0.5-0.1,0.9-0.3,1.4-0.4c0.5-0.1,0.9-0.3,1.2-0.4c0.7-0.2,1.3-0.3,1.3-0.3s-0.3,0.5-0.9,1c-0.3,0.3-0.7,0.5-1.2,0.7     c-0.2,0.1-0.5,0.2-0.7,0.3c-0.2,0.1-0.5,0.2-0.8,0.2c-0.5,0.1-1.1,0.2-1.6,0.2c-0.5,0-1,0-1.4-0.1C70,76.7,69.5,76.5,69.5,76.5z"/>
      </g>
      <g fill="#ffd300">
        <path d="M70.7,72.9c0,0,0.6-0.3,1.6-0.3c0.5-0.1,1.1-0.1,1.7,0c0.6,0.1,1.2,0.2,1.9,0.4c0.3,0.1,0.6,0.2,0.9,0.3     c0.3,0.1,0.6,0.3,0.8,0.4c0.5,0.3,1,0.6,1.4,0.9c0.8,0.6,1.1,1.2,1.1,1.2s-0.2,0-0.4-0.1c-0.3-0.1-0.6-0.2-1.1-0.4     c-0.4-0.2-0.9-0.3-1.5-0.5c-0.5-0.2-1.1-0.4-1.7-0.6c-0.6-0.2-1.2-0.3-1.7-0.5c-0.5-0.1-1.1-0.3-1.5-0.4     c-0.5-0.1-0.8-0.2-1.1-0.3C70.8,73,70.7,72.9,70.7,72.9z"/>
      </g>
      <g fill="#ffd300">
        <path d="M78.6,73.1c0,0,0.4-0.1,1-0.2c0.6,0,1.4,0,2.2,0.2c0.8,0.2,1.5,0.5,2,0.8c0.5,0.3,0.8,0.6,0.8,0.6s-0.4,0.1-1,0     c-0.6,0-1.4-0.1-2.1-0.3c-0.8-0.2-1.5-0.5-2-0.7C78.9,73.3,78.6,73.1,78.6,73.1z"/>
      </g>
      <g fill="#ffd300">
        <path d="M81.7,76.6c0,0,0.1-0.2,0.3-0.4c0.2-0.3,0.5-0.6,0.9-1c0.4-0.4,0.9-0.8,1.5-1.2c0.6-0.4,1.3-0.7,2-0.9     c0.7-0.2,1.4-0.4,2.1-0.5c0.7-0.1,1.3-0.1,1.9,0c0.6,0.1,1,0.3,1.3,0.4c0.3,0.2,0.4,0.3,0.4,0.3s-0.2-0.1-0.5-0.1     c-0.3,0-0.7,0-1.2,0c-0.5,0.1-1.1,0.2-1.7,0.3c-0.3,0.1-0.6,0.2-0.9,0.2c-0.3,0.1-0.6,0.2-1,0.3c-1.3,0.4-2.5,1-3.4,1.5     C82.3,76.2,81.7,76.6,81.7,76.6z"/>
      </g>
      <g fill="#ffd300">
        <path d="M88.6,76.4c0,0,0.1,0,0.3-0.1c0.2,0,0.4-0.1,0.7-0.1c0.3-0.1,0.6-0.1,0.9-0.2c0.3-0.1,0.7-0.1,1-0.2     c0.3-0.1,0.7-0.2,1-0.2c0.3-0.1,0.6-0.1,0.9-0.2c0.5-0.1,1-0.2,1-0.2s-0.2,0.4-0.6,0.8c-0.2,0.2-0.5,0.4-0.8,0.6     c-0.2,0.1-0.3,0.2-0.5,0.2c-0.2,0.1-0.4,0.1-0.6,0.2c-0.4,0.1-0.8,0.1-1.2,0.1c-0.4,0-0.7-0.1-1-0.2     C88.9,76.7,88.6,76.4,88.6,76.4z"/>
      </g>
      <g fill="#ffd300">
        <path d="M88.2,74.5c0,0,0.5-0.3,1.2-0.5c0.7-0.2,1.7-0.4,2.7-0.6c1-0.1,2-0.1,2.8,0c0.8,0.1,1.3,0.2,1.3,0.2S95.7,74,95,74.2     c-0.7,0.2-1.7,0.4-2.7,0.6c-1,0.1-2,0.1-2.8,0C88.7,74.7,88.2,74.5,88.2,74.5z"/>
      </g>
      <g fill="#ffd300">
        <path d="M88.2,69.5c0,0,0.5-0.1,1.2-0.1c0.4,0,0.8,0,1.2,0.1c0.4,0.1,0.9,0.2,1.3,0.4c0.2,0.1,0.4,0.2,0.6,0.3     c0.2,0.1,0.4,0.2,0.6,0.4c0.4,0.3,0.7,0.6,0.9,0.9c0.2,0.3,0.3,0.7,0.3,0.9c0,0.2,0,0.3,0,0.3c0,0-0.3-0.4-0.8-0.7     c-0.3-0.2-0.6-0.3-0.9-0.5c-0.2-0.1-0.4-0.1-0.6-0.2c-0.2-0.1-0.4-0.2-0.6-0.2c-0.8-0.3-1.6-0.7-2.3-1     C88.6,69.7,88.2,69.5,88.2,69.5z"/>
      </g>
      <g fill="#ffd300">
        <path d="M87.4,71.6c0,0,0.7,0.1,1.7,0.1c1,0,2.2,0,3.5,0c0.3,0,0.7,0,1,0c0.3,0,0.5,0,0.7-0.1c0.2-0.1,0.4-0.3,0.7-0.4     c0.2-0.2,0.5-0.3,0.7-0.4c0.9-0.5,1.5-0.8,1.5-0.8s-0.4,0.6-1,1.3c-0.2,0.2-0.3,0.4-0.5,0.6c-0.2,0.2-0.4,0.4-0.7,0.7     c-0.4,0.3-0.9,0.3-1.2,0.3c-0.3,0-0.7,0-1,0c-0.7,0-1.3,0-2-0.1c-0.6-0.1-1.2-0.2-1.7-0.4C88,72,87.4,71.6,87.4,71.6z"/>
      </g>
      <g fill="#ffd300">
        <path d="M89.2,67.8c0,0,0.5-0.1,1.2-0.1c0.7,0,1.6,0.1,2.5,0.4c0.2,0.1,0.4,0.1,0.6,0.2c0.2,0.1,0.5,0.2,0.7,0.3     c0.1,0.1,0.1,0.1,0.2,0.1c0.1,0.1,0.1,0.1,0.2,0.2c0.1,0.1,0.2,0.2,0.2,0.3c0.1,0.2,0.2,0.4,0.2,0.6c0.1,0.4,0.1,0.7,0.1,0.9     c0,0.2,0,0.3,0,0.3s-0.1-0.1-0.2-0.3c-0.1-0.2-0.3-0.4-0.5-0.7c-0.1-0.1-0.2-0.2-0.3-0.3c-0.1,0-0.1-0.1-0.2-0.1c0,0-0.1,0-0.1,0     c0,0-0.1-0.1-0.1-0.1c-0.2-0.1-0.7-0.2-1.1-0.3c-0.9-0.2-1.7-0.6-2.3-0.9C89.6,68.1,89.2,67.8,89.2,67.8z"/>
      </g>
      <g fill="#ffd300">
        <path d="M90.1,65.1c0,0,0.4-0.2,1.1-0.4c0.7-0.2,1.7-0.2,2.7,0.2c0.2,0.1,0.4,0.3,0.7,0.4c0.2,0.1,0.4,0.3,0.5,0.5     c0.3,0.3,0.5,0.6,0.7,0.9c0.4,0.5,0.7,0.9,0.7,0.9s-0.1,0-0.3,0c-0.2,0-0.5-0.1-0.8-0.3c-0.3-0.2-0.7-0.4-1-0.6     c-0.2-0.1-0.3-0.2-0.5-0.3c-0.1-0.1-0.3-0.2-0.5-0.3c-0.7-0.3-1.5-0.5-2.1-0.6C90.5,65.3,90.1,65.1,90.1,65.1z"/>
      </g>
      <g fill="#ffd300">
        <path d="M80.9,70.8c0,0,0.1,0,0.4-0.1c0.2-0.1,0.5-0.2,0.9-0.3c0.2-0.1,0.4-0.1,0.6-0.2c0.2-0.1,0.4-0.2,0.6-0.2     c0.4-0.2,0.8-0.4,1.2-0.6c0.4-0.2,0.8-0.5,1.2-0.7c0.2-0.1,0.4-0.2,0.5-0.4c0.2-0.1,0.3-0.3,0.5-0.4c0.3-0.2,0.5-0.4,0.7-0.6     c0.2-0.2,0.3-0.2,0.3-0.2s0,0.1-0.1,0.4c0,0.2-0.1,0.6-0.3,0.9c-0.2,0.4-0.5,0.8-0.8,1.1c-0.2,0.2-0.4,0.4-0.6,0.5     c-0.2,0.2-0.4,0.3-0.7,0.5c-0.2,0.1-0.5,0.2-0.7,0.3c-0.2,0.1-0.5,0.2-0.8,0.2c-0.5,0.1-1,0.1-1.4,0.1c-0.4,0-0.8-0.1-1-0.2     C81,70.9,80.9,70.8,80.9,70.8z"/>
      </g>
      <g fill="#ffd300">
        <path d="M84.8,72c0,0,0.2-0.3,0.4-0.5c0.3-0.3,0.6-0.5,1-0.7c0.4-0.2,0.8-0.3,1.2-0.3c0.4,0,0.7,0,0.7,0s-0.1,0.3-0.3,0.6     c-0.2,0.3-0.6,0.6-1,0.8c-0.4,0.2-0.9,0.3-1.3,0.2C85.1,72.1,84.8,72,84.8,72z"/>
      </g>
      <g fill="#ffd300">
        <path d="M78,64.2c0,0,0.1-0.1,0.3-0.2c0.2-0.1,0.6-0.2,1-0.2c0.4,0,0.9,0.1,1.4,0.3c0.3,0.1,0.5,0.2,0.7,0.4     c0.2,0.2,0.4,0.3,0.6,0.5c0.8,0.8,1.3,1.7,1.7,2.3c0.4,0.7,0.5,1.2,0.5,1.2s-0.5-0.3-1.1-0.8c-0.3-0.2-0.6-0.5-1-0.9     c-0.3-0.3-0.7-0.7-1-1c-0.2-0.2-0.3-0.3-0.5-0.5c-0.2-0.1-0.3-0.3-0.5-0.4c-0.3-0.2-0.7-0.4-1-0.6C78.5,64.3,78,64.2,78,64.2z"/>
      </g>
      <g fill="#ffd300">
        <path d="M84.5,64.1c0,0,0.4-0.1,1,0c0.3,0,0.6,0.1,0.9,0.1c0.3,0,0.7,0.1,1,0.2c0.7,0.2,1.3,0.4,1.8,0.7c0.5,0.2,0.8,0.5,0.8,0.5     s-0.4,0.2-1,0.2c-0.6,0.1-1.3,0-2-0.2c-0.7-0.2-1.4-0.5-1.8-0.9C84.8,64.4,84.5,64.1,84.5,64.1z"/>
      </g>
      <g fill="#ffd300">
        <path d="M85.4,61.1c0,0,0.6,0,1.4,0c0.8,0,1.9,0.1,3,0.1c0.5,0,1.1,0,1.6,0.1c0.5,0,1.1,0.1,1.5,0.2c0.4,0.1,0.8,0.3,1,0.4     c0.2,0.1,0.3,0.3,0.3,0.3s-0.6-0.1-1.4,0c-0.4,0-0.9,0.1-1.4,0.1c-0.5,0.1-1.1,0.1-1.7,0.1c-0.6,0-1.2-0.1-1.7-0.2     c-0.5-0.1-1-0.3-1.4-0.4C85.9,61.4,85.4,61.1,85.4,61.1z"/>
      </g>
      <g fill="#ffd300">
        <path d="M80.9,62c0,0,0.4-0.1,1.1-0.2c0.6-0.1,1.4-0.1,2.3,0c0.8,0.1,1.6,0.2,2.2,0.4c0.6,0.2,1,0.4,1,0.4s-0.4,0.2-1,0.3     c-0.6,0.1-1.5,0.2-2.3,0.2c-0.8-0.1-1.7-0.3-2.3-0.5C81.3,62.2,80.9,62,80.9,62z"/>
      </g>
      <g fill="#ffd300">
        <path d="M82.9,58.2c0,0,0.6-0.2,1.6-0.3c1-0.1,2.3,0,3.5,0.2c0.6,0.1,1.3,0.3,1.9,0.5c0.6,0.2,1.1,0.4,1.6,0.7     c0.9,0.5,1.3,1,1.3,1s-0.6-0.2-1.6-0.3c-0.9-0.2-2.1-0.3-3.4-0.6c-1.2-0.2-2.5-0.5-3.4-0.7C83.6,58.5,82.9,58.2,82.9,58.2z"/>
      </g>
      <g fill="#ffd300">
        <path d="M84.3,55.1c0,0,0.1-0.1,0.3-0.2c0.2-0.1,0.5-0.3,0.9-0.4c0.4-0.1,0.8-0.1,1.3-0.1c0.5,0,1,0.1,1.4,0.3     c0.5,0.1,0.9,0.3,1.3,0.5c0.4,0.2,0.8,0.3,1.1,0.5c0.6,0.3,1.1,0.5,1.1,0.5s-0.5,0.2-1.2,0.1c-0.4,0-0.8-0.1-1.2-0.2     c-0.4-0.1-0.9-0.2-1.3-0.3c-0.9-0.3-1.7-0.5-2.3-0.6C84.8,55.2,84.3,55.1,84.3,55.1z"/>
      </g>
      <g fill="#ffd300">
        <path d="M35.2,34.8c0,0-0.1,0.1-0.4,0.2c-0.3,0.1-0.7,0.3-1.2,0.4c-0.5,0.1-1.1,0.1-1.7,0.1c-0.6,0-1.2,0-1.8,0.1     c-0.3,0.1-0.5,0.1-0.8,0.2c-0.1,0-0.3,0.1-0.4,0.2c-0.1,0.1-0.2,0.1-0.3,0.2c-0.5,0.3-0.9,0.7-1.4,0.9c-0.5,0.3-0.9,0.4-1.2,0.4     c-0.3,0-0.5-0.1-0.5-0.1c0,0,0.2,0,0.4-0.2c0.2-0.1,0.5-0.3,0.9-0.7c0.3-0.3,0.7-0.8,1.1-1.2c0.1-0.1,0.2-0.2,0.4-0.3     c0.2-0.1,0.2-0.2,0.5-0.3c0.3-0.2,0.7-0.3,1.1-0.4c0.4-0.1,0.7-0.1,1.1-0.1c0.3,0,0.7,0,1,0.1c0.6,0.1,1.2,0.2,1.6,0.3     c0.5,0.1,0.9,0.1,1.1,0.1C35,34.8,35.2,34.8,35.2,34.8z"/>
      </g>
      <g fill="#ffd300">
        <path d="M30.1,39.4c0,0-0.2,0.1-0.5,0.2c-0.3,0.1-0.8,0.1-1.3,0.1c-0.5,0-1.1,0-1.7,0c-0.3,0-0.5,0.1-0.8,0.2     c-0.3,0.1-0.6,0.3-0.9,0.4c-0.2,0.1-0.3,0.1-0.5,0.2c-0.2,0.1-0.4,0.1-0.5,0.2c-0.4,0.1-0.7,0.1-1.1,0.2c-0.7,0.1-1.3,0-1.9,0     c-0.5-0.1-1-0.2-1.3-0.3c-0.3-0.1-0.5-0.2-0.5-0.2s0.2,0,0.5,0c0.3,0,0.7-0.1,1.2-0.1c1-0.1,2.3-0.4,3.5-0.9     c0.3-0.1,0.6-0.3,1-0.4c0.4-0.1,0.8-0.2,1.1-0.2c0.8,0,1.4,0.2,1.9,0.3c0.5,0.1,0.9,0.3,1.2,0.3C29.9,39.4,30.1,39.4,30.1,39.4z"/>
      </g>
      <g fill="#ffd300">
        <path d="M26.8,43.2c0,0,0,0,0,0.1c0,0.1-0.1,0.2-0.3,0.3c-0.2,0.1-0.3,0.1-0.5,0.1c-0.2,0-0.4,0.1-0.7,0.1     c-1,0.2-2.2,0.3-3.5,0.3c-0.6,0-1.3,0-1.9-0.1c-0.6,0-1.1-0.1-1.7-0.2c-0.5-0.1-0.9-0.3-1.1-0.6c-0.2-0.2-0.2-0.4-0.3-0.4     c0,0,0.1,0.1,0.4,0.2c0.3,0.1,0.6,0.1,1.1,0c0.4-0.1,1-0.1,1.6-0.2c0.6-0.1,1.2-0.1,1.9-0.1c1.3,0,2.6,0.1,3.5,0.3     c0.5,0.1,0.9,0.2,1.1,0.2C26.5,43.3,26.6,43.3,26.8,43.2C26.7,43.2,26.8,43.2,26.8,43.2z"/>
      </g>
      <g fill="#ffd300">
        <path d="M23.1,46.9c0,0-0.5,0.2-1.2,0.4c-0.7,0.2-1.6,0.5-2.4,0.7c-0.4,0.1-0.9,0.2-1.3,0.4c-0.4,0.1-0.7,0.2-1,0.4     c-0.3,0.2-0.5,0.3-0.6,0.5c-0.1,0.2-0.2,0.3-0.2,0.3c0,0-0.1-0.1-0.1-0.4c0-0.2,0.1-0.6,0.3-1c0.2-0.4,0.6-0.7,1.1-0.9     c0.4-0.2,0.9-0.4,1.4-0.5c0.5-0.1,1-0.2,1.4-0.2c0.5,0,0.9,0,1.3,0C22.6,46.7,23.1,46.9,23.1,46.9z"/>
      </g>
      <g fill="#ffd300">
        <path d="M23.4,50.8c0,0-0.2,0-0.5,0c-0.3,0.1-0.7,0.3-1.2,0.6c-0.4,0.3-1,0.8-1.5,1.2c-0.6,0.4-1.2,0.9-1.8,1.4     c-1.2,0.9-2.3,1.9-3.1,2.7c-0.4,0.4-0.7,0.8-1,1c-0.2,0.3-0.4,0.4-0.4,0.4s0-0.2,0.1-0.5c0.1-0.3,0.3-0.8,0.6-1.3     c0.3-0.5,0.7-1.1,1.2-1.7c0.3-0.3,0.5-0.6,0.8-0.8c0.3-0.3,0.6-0.5,0.9-0.8c0.6-0.5,1.3-0.9,1.9-1.3c0.6-0.4,1.2-0.7,1.8-0.9     c0.6-0.2,1.1-0.3,1.5-0.2C23.2,50.7,23.4,50.8,23.4,50.8z"/>
      </g>
      <g fill="#ffd300">
        <path d="M18.6,59.3c0,0-0.4,0.3-1.1,0.6c-0.7,0.3-1.6,0.5-2.6,0.6c-1,0.1-1.9,0-2.6-0.2c-0.7-0.2-1.2-0.4-1.2-0.4     s0.5-0.2,1.2-0.3c0.7-0.1,1.6-0.3,2.5-0.3c0.5,0,0.9-0.1,1.3-0.1c0.4,0,0.8,0,1.2,0C18.1,59.1,18.6,59.3,18.6,59.3z"/>
      </g>
      <g fill="#ffd300">
        <path d="M17.9,62.3c0,0-0.4,0.2-1,0.4c-0.3,0.1-0.6,0.1-1,0.2c-0.2,0-0.4,0.1-0.6,0.1c-0.2,0-0.4,0-0.5,0c-0.1,0,0,0-0.1,0     c0,0-0.1,0.2-0.2,0.4c-0.2,0.3-0.4,0.6-0.6,0.9c-0.4,0.5-0.7,0.8-0.7,0.8s0-0.4,0-1c0-0.3,0.1-0.6,0.2-1c0.1-0.2,0.1-0.4,0.3-0.6     c0.2-0.3,0.6-0.5,0.9-0.6c0.3,0,0.5,0,0.7,0c0.2,0,0.4,0,0.6,0.1c0.4,0,0.7,0.1,1,0.2C17.5,62.1,17.9,62.3,17.9,62.3z"/>
      </g>
      <g fill="#ffd300">
        <path d="M21.9,64.6c0,0-0.3,0.5-1,0.9c-0.3,0.2-0.8,0.4-1.2,0.6c-0.5,0.2-1,0.3-1.5,0.4c-1,0.2-2,0.3-2.8,0.2     c-0.8,0-1.3-0.1-1.3-0.1s0.5-0.3,1.2-0.6c0.7-0.3,1.7-0.6,2.7-0.7c1-0.2,1.9-0.3,2.7-0.5C21.4,64.7,21.9,64.6,21.9,64.6z"/>
      </g>
      <g fill="#ffd300">
        <path d="M19.1,69.2c0,0,0,0.4-0.1,0.9c-0.1,0.5-0.5,1.1-1.1,1.6c-0.2,0.1-0.3,0.2-0.5,0.3C17.1,72,17,72,16.8,72.1     c-0.3,0.1-0.7,0-0.9,0c-0.5-0.1-0.8-0.3-0.8-0.3s0.3-0.2,0.7-0.4c0.2-0.1,0.4-0.2,0.7-0.3c0.1-0.1,0.2-0.1,0.3-0.2     c0.1-0.1,0.2-0.1,0.3-0.2c0.2-0.1,0.4-0.3,0.6-0.5c0.2-0.2,0.4-0.3,0.6-0.5C18.7,69.4,19.1,69.2,19.1,69.2z"/>
      </g>
      <g fill="#ffd300">
        <path d="M26.8,69.2c0,0-0.3,0.3-0.8,0.7c-0.3,0.2-0.6,0.3-0.9,0.5c-0.3,0.2-0.7,0.3-1.1,0.4c-0.8,0.2-1.6,0.2-2.2,0.1     c-0.6-0.1-1-0.3-1-0.3s0.4-0.2,0.9-0.4c0.6-0.2,1.3-0.4,2-0.6c0.4-0.1,0.7-0.2,1.1-0.2c0.3-0.1,0.7-0.1,1-0.1     C26.3,69.2,26.8,69.2,26.8,69.2z"/>
      </g>
      <g fill="#ffd300">
        <path d="M26,65.3c0,0-0.3,0.3-0.9,0.6c-0.6,0.3-1.4,0.6-2.2,0.7c-0.8,0.1-1.7,0.1-2.3,0c-0.6-0.1-1.1-0.3-1.1-0.3s0.4-0.2,1-0.4     c0.6-0.2,1.4-0.4,2.2-0.5c0.4,0,0.8-0.1,1.2-0.1c0.4,0,0.7,0,1.1,0C25.6,65.2,26,65.3,26,65.3z"/>
      </g>
      <g fill="#ffd300">
        <path d="M22.1,59c0,0-0.1,0.1-0.2,0.2c-0.1,0.1-0.3,0.3-0.6,0.4c-0.2,0.2-0.5,0.4-0.8,0.6c-0.3,0.2-0.6,0.4-0.8,0.7     c-0.3,0.2-0.6,0.5-0.8,0.7c-0.3,0.2-0.5,0.5-0.7,0.6c-0.4,0.4-0.8,0.7-0.8,0.7s0-0.5,0.2-1.1c0.1-0.3,0.3-0.6,0.5-1     c0.1-0.2,0.2-0.3,0.4-0.5c0.1-0.2,0.3-0.3,0.5-0.4c0.3-0.3,0.7-0.5,1.1-0.6c0.4-0.2,0.7-0.3,1.1-0.3C21.6,58.9,22.1,59,22.1,59z"/>
      </g>
      <g fill="#ffd300">
        <path d="M22.8,55.1c0,0-0.2,0.3-0.5,0.7c-0.3,0.4-0.8,0.7-1.3,1.1c-0.5,0.3-1.1,0.5-1.5,0.7c-0.5,0.1-0.8,0.1-0.8,0.1     s0.1-0.4,0.4-0.7c0.3-0.4,0.8-0.8,1.3-1.2c0.5-0.3,1.1-0.5,1.6-0.6C22.4,55.1,22.8,55.1,22.8,55.1z"/>
      </g>
      <g fill="#ffd300">
        <path d="M28.7,62.5c0,0-0.1,0.1-0.3,0.3c-0.2,0.2-0.6,0.4-1,0.5c-0.4,0.2-1,0.3-1.5,0.4c-0.6,0.1-1.2,0.1-1.8,0.2     c-1.2,0-2.4-0.1-3.2-0.1c-0.4,0-0.8,0-1.1-0.1c-0.3,0-0.4,0-0.4,0s0.5-0.4,1.4-0.6c0.9-0.3,2.1-0.4,3.3-0.4c0.6,0,1.2,0,1.7,0     c0.5,0,1,0,1.5,0c0.4,0,0.8,0,1.1-0.1C28.5,62.5,28.7,62.5,28.7,62.5z"/>
      </g>
      <g fill="#ffd300">
        <path d="M30.1,65.4c0,0-0.4,0.2-1.1,0.2c-0.6,0.1-1.4,0.1-2.3,0.1c-0.8-0.1-1.6-0.2-2.2-0.4c-0.6-0.2-1-0.4-1-0.4s0.4-0.2,1-0.3     c0.6-0.1,1.5-0.2,2.3-0.2c0.8,0.1,1.7,0.2,2.3,0.5C29.7,65.1,30.1,65.4,30.1,65.4z"/>
      </g>
      <g fill="#ffd300">
        <path d="M33.2,68.2c0,0-0.5,0.2-1.3,0.4c-0.8,0.2-1.9,0.3-2.9,0.3c-1.1,0-2.1-0.1-2.9-0.2c-0.8-0.1-1.3-0.2-1.3-0.2     s0.1-0.1,0.3-0.2c0.2-0.1,0.6-0.3,1-0.3c0.8-0.2,1.9-0.3,2.9-0.3c1.1,0,2.1,0.1,2.9,0.2C32.6,68,33.2,68.2,33.2,68.2z"/>
      </g>
      <g fill="#ffd300">
        <path d="M41.5,31.1c0,0,0.1-0.1,0.2-0.2c0.2-0.1,0.4-0.2,0.7-0.3c0.3-0.1,0.7-0.1,1.1,0c0.4,0.1,0.8,0.3,1.2,0.6     c0.2,0.1,0.3,0.3,0.5,0.5c0.1,0.2,0.3,0.4,0.3,0.5c0.2,0.3,0.3,0.6,0.4,0.9c0.2,0.5,0.5,0.9,0.5,0.9c0,0-0.1,0-0.3,0     c-0.2,0-0.5-0.2-0.7-0.4c-0.3-0.2-0.5-0.5-0.8-0.7c-0.1-0.1-0.2-0.2-0.4-0.4c-0.1-0.1-0.2-0.2-0.4-0.3c-0.5-0.4-1.1-0.7-1.6-0.9     C41.9,31.2,41.5,31.1,41.5,31.1z"/>
      </g>
      <g fill="#ffd300">
        <path d="M48.4,31.6c0,0,0.3,0.3,0.5,0.7c0.2,0.4,0.4,1,0.4,1.6c0.1,0.6,0,1.2-0.1,1.6c0,0.1-0.1,0.2-0.1,0.3c0,0,0,0.1,0,0.1     l0,0.1l0,0l0,0l0,0c0.1,0.1-0.5,0-0.3,0l0,0l0,0l0,0c0.1-0.1,0.1-0.2,0.1-0.2s0.1,0.1,0.1,0.2l0,0l0,0l0,0c0.2,0-0.3,0-0.3,0     c0,0,0,0,0,0l0,0l0,0l0-0.1c0,0,0-0.1-0.1-0.1c0-0.1-0.1-0.2-0.1-0.3c-0.2-0.4-0.3-1-0.4-1.6c-0.1-0.6,0-1.2,0.1-1.6     C48.3,32,48.4,31.6,48.4,31.6z"/>
      </g>
      <g fill="#ffd300">
        <path d="M45.3,36.5c0,0-0.7,0.1-1.8,0.1c-1.1,0-2.4-0.1-3.8-0.2c-1.4-0.2-2.7-0.5-3.7-0.8c-0.5-0.2-0.9-0.3-1.1-0.2     c-0.3,0-0.4,0.2-0.4,0.2c0,0,0-0.2,0.3-0.4c0.3-0.2,0.8-0.3,1.3-0.3c1.1,0,2.4,0.1,3.8,0.2c1.4,0.2,2.7,0.5,3.7,0.8     C44.6,36.2,45.3,36.5,45.3,36.5z"/>
      </g>
      <g fill="#ffd300">
        <path d="M40,38.7c0,0-0.5,0.1-1.3,0.1c-0.7,0-1.7,0-2.7,0.1c-0.5,0-1,0-1.4,0c-0.2,0-0.4,0-0.6,0c-0.2,0-0.4,0-0.5,0.1     c-0.3,0.1-0.6,0.2-0.8,0.3c-0.2,0.1-0.3,0.2-0.3,0.2c0,0,0-0.1,0.1-0.4c0.1-0.2,0.3-0.5,0.7-0.8c0.2-0.1,0.4-0.2,0.6-0.3     c0.2-0.1,0.5-0.2,0.7-0.2c0.5-0.1,1-0.2,1.5-0.2c0.5,0,1,0,1.5,0.1c0.5,0.1,0.9,0.2,1.3,0.4C39.6,38.4,40,38.7,40,38.7z"/>
      </g>
      <g fill="#ffd300">
        <path d="M38.1,36.9c0,0-0.8,0.1-2,0.3c-0.6,0.1-1.3,0.1-2,0.3c-0.4,0.1-0.7,0.1-1.1,0.2c-0.4,0.1-0.7,0.2-1.1,0.3     c-0.7,0.2-1.4,0.6-2,1c-0.6,0.4-1.2,0.7-1.7,1.1c-1,0.7-1.8,1-1.8,1s0.5-0.7,1.3-1.6c0.4-0.5,0.9-1,1.6-1.4     c0.6-0.5,1.4-0.9,2.2-1.2c0.4-0.1,0.8-0.3,1.2-0.3c0.4-0.1,0.8-0.1,1.2-0.1c0.8,0,1.5,0,2.1,0.1C37.3,36.7,38.1,36.9,38.1,36.9z"/>
      </g>
      <g fill="#ffd300">
        <path d="M41.6,41.6c0,0-0.9,0.2-2.2,0.4c-0.7,0.1-1.4,0.1-2.3,0.2c-0.4,0-0.8,0-1.3,0.1c-0.4,0-0.8,0-1.2,0.1     c-0.3,0.1-0.6,0.2-0.9,0.4c-0.3,0.2-0.6,0.5-0.9,0.8c-0.6,0.6-1.1,1.1-1.6,1.6c-1,0.9-1.7,1.4-1.7,1.4s0.4-0.8,1.2-1.9     c0.4-0.5,0.8-1.2,1.3-1.8c0.3-0.3,0.5-0.7,0.9-1c0.4-0.3,0.9-0.6,1.4-0.7c0.5-0.1,1-0.1,1.4-0.1c0.4,0,0.9,0,1.3,0.1     c0.8,0,1.6,0.1,2.3,0.2C40.8,41.4,41.6,41.6,41.6,41.6z"/>
      </g>
      <g fill="#ffd300">
        <path d="M31.2,43.1c0,0-0.2,0.5-0.5,1.1c-0.4,0.6-0.9,1.4-1.5,2.2c-0.3,0.3-0.6,0.7-1,1c-0.4,0.3-0.8,0.6-1.2,0.7     c-0.4,0.1-0.8,0.1-1,0c-0.2-0.1-0.3-0.2-0.3-0.2c0,0,0.1,0,0.3-0.1c0.2-0.1,0.4-0.2,0.7-0.4c0.2-0.2,0.5-0.5,0.7-0.8     c0.2-0.3,0.6-0.7,0.9-1.1c0.6-0.7,1.4-1.4,1.9-1.8C30.7,43.3,31.2,43.1,31.2,43.1z"/>
      </g>
      <g fill="#ffd300">
        <path d="M33.3,47.4c0,0-0.6,0.4-1.4,0.8c-0.9,0.4-2.1,0.9-3.3,1.4c-0.6,0.2-1.2,0.4-1.8,0.6c-0.6,0.2-1.1,0.3-1.5,0.5     c-0.4,0.2-0.7,0.4-0.9,0.6c-0.2,0.2-0.3,0.3-0.3,0.3s0-0.2,0.1-0.5c0.1-0.3,0.3-0.7,0.8-1c0.4-0.4,0.9-0.6,1.5-0.9     c0.5-0.3,1.2-0.5,1.8-0.8c1.2-0.5,2.5-0.8,3.5-0.9C32.6,47.4,33.3,47.4,33.3,47.4z"/>
      </g>
      <g fill="#ffd300">
        <path d="M31.4,50.9c0,0-0.5,0.2-1.3,0.6c-0.8,0.4-1.7,0.9-2.7,1.4c-1,0.5-2,1.1-2.8,1.4c-0.4,0.2-0.7,0.3-0.9,0.4     c-0.2,0.1-0.2,0.3-0.2,0.3c0,0-0.1-0.2,0-0.4c0.1-0.3,0.4-0.5,0.7-0.9c0.6-0.6,1.5-1.4,2.6-1.9c0.5-0.3,1.1-0.5,1.6-0.7     c0.5-0.2,1.1-0.3,1.5-0.3c0.4,0,0.8,0,1.1,0C31.3,50.9,31.4,50.9,31.4,50.9z"/>
      </g>
      <g fill="#ffd300">
        <path d="M29.5,55.4c0,0-0.5,0.3-1.1,0.6c-0.3,0.2-0.7,0.3-1.1,0.5c-0.4,0.2-0.9,0.3-1.3,0.5c-0.4,0.2-0.9,0.3-1.3,0.5     c-0.4,0.2-0.8,0.3-1.2,0.4c-0.7,0.2-1.2,0.4-1.2,0.4s0.3-0.5,0.8-1c0.3-0.3,0.6-0.5,1-0.8c0.4-0.3,0.9-0.5,1.3-0.7     c0.5-0.2,1-0.3,1.4-0.4c0.5-0.1,0.9-0.1,1.3-0.1C29,55.3,29.5,55.4,29.5,55.4z"/>
      </g>
      <g fill="#ffd300">
        <path d="M30,59c0,0-0.4,0.1-1,0.2c-0.3,0.1-0.6,0.1-0.9,0.2c-0.3,0.1-0.7,0.1-1.1,0.2c-0.4,0-0.7,0.1-1.1,0.2     c-0.3,0.1-0.7,0.1-1,0.1c-0.6,0.1-1,0.1-1,0.1s0.2-0.4,0.7-0.7c0.2-0.2,0.6-0.4,0.9-0.5c0.4-0.2,0.8-0.3,1.2-0.3     c0.4,0,0.8-0.1,1.2,0c0.4,0,0.7,0.1,1,0.2C29.6,58.7,30,59,30,59z"/>
      </g>
      <g fill="#ffd300">
        <path d="M33.6,61.2c0,0-0.1,0.3-0.4,0.5c-0.3,0.3-0.8,0.5-1.3,0.5c-0.5,0.1-1,0-1.4-0.2c-0.4-0.2-0.6-0.4-0.6-0.4     s0.3-0.2,0.6-0.3c0.3-0.1,0.8-0.3,1.2-0.3c0.2,0,0.4,0,0.6,0c0.2,0,0.4,0,0.6,0C33.3,61.1,33.6,61.2,33.6,61.2z"/>
      </g>
      <g fill="#ffd300">
        <path d="M49.3,30.8c0,0,0.6,0,1.5,0.2c0.4,0.1,0.9,0.2,1.5,0.5c0.3,0.1,0.6,0.3,0.8,0.5c0.3,0.2,0.5,0.5,0.7,0.8     c0.2,0.3,0.3,0.6,0.4,0.8l0.2,0.4c0.1,0.1,0.1,0.2,0.2,0.3c0.2,0.5,0.5,0.9,0.7,1.2c0.5,0.7,0.8,1.2,0.8,1.2s-0.6-0.2-1.3-0.8     c-0.4-0.3-0.8-0.7-1.1-1.1c-0.1-0.1-0.2-0.2-0.3-0.4c-0.1-0.1-0.2-0.2-0.2-0.4c-0.1-0.3-0.3-0.5-0.4-0.7c-0.2-0.4-0.6-0.7-1-1     c-0.4-0.3-0.9-0.6-1.2-0.8C49.8,31.1,49.3,30.8,49.3,30.8z"/>
      </g>
      <g fill="#ffd300">
        <path d="M51.3,34.2c0,0,0,0.5,0.3,1c0.1,0.1,0.2,0.2,0.3,0.3c0.1,0.1,0.2,0.2,0.4,0.3c0.3,0.2,0.6,0.4,0.9,0.7     c0.7,0.5,1.3,1.1,1.8,1.6c0.4,0.5,0.7,0.9,0.7,0.9s-0.5-0.1-1.1-0.4c-0.6-0.3-1.4-0.7-2.1-1.2c-0.3-0.3-0.7-0.6-1-0.9     c-0.2-0.2-0.3-0.4-0.4-0.6C51,35.7,51,35.5,51,35.3c0-0.4,0-0.7,0.1-0.9C51.2,34.2,51.3,34.2,51.3,34.2z"/>
      </g>
      <g fill="#ffd300">
        <path d="M56.4,32.9c0,0,0.6,0,1.5,0.1c0.9,0.1,2,0.5,3,0.9c1,0.5,2,1.1,2.7,1.7c0.7,0.5,1,1,1,1s-0.6-0.1-1.4-0.4     c-0.8-0.3-1.8-0.7-2.8-1.2c-0.5-0.2-1-0.5-1.5-0.7c-0.5-0.2-0.9-0.5-1.3-0.7C56.8,33.2,56.4,32.9,56.4,32.9z"/>
      </g>
      <g fill="#ffd300">
        <path d="M56.8,34.7c0,0,0.4,0,1,0.1c0.6,0.1,1.3,0.3,2,0.7c0.7,0.4,1.3,0.8,1.7,1.2c0.4,0.4,0.6,0.8,0.6,0.8s-0.4,0-1-0.2     c-0.6-0.1-1.2-0.4-1.9-0.8c-0.6-0.3-1.3-0.8-1.7-1.1C57.1,35.1,56.8,34.7,56.8,34.7z"/>
      </g>
      <g fill="#ffd300">
        <path d="M66.2,34.7c0,0,0.5-0.1,1.2,0c0.7,0,1.6,0.2,2.5,0.5c0.4,0.1,0.9,0.3,1.3,0.5c0.4,0.2,0.8,0.4,1.1,0.8     c0.3,0.3,0.4,0.7,0.4,0.9c0,0.2-0.1,0.3-0.1,0.3c0,0,0-0.1-0.2-0.3c-0.1-0.2-0.3-0.3-0.6-0.4c-0.3-0.1-0.6-0.2-1-0.3     c-0.4-0.1-0.9-0.2-1.3-0.3c-0.9-0.3-1.7-0.6-2.3-1C66.5,35,66.2,34.7,66.2,34.7z"/>
      </g>
      <g fill="#ffd300">
        <path d="M62.2,33.4c0,0,0.4-0.3,1.2-0.5c0.4-0.1,0.8-0.2,1.3-0.2c0.5,0,1,0,1.5,0.1c0.5,0.1,1,0.2,1.5,0.4     c0.5,0.2,0.9,0.4,1.2,0.6c0.2,0.1,0.3,0.2,0.4,0.3c0.1,0.1,0.2,0.2,0.3,0.3c0.1,0.1,0.1,0.2,0.1,0.2c0,0.1-0.1,0.1-0.1,0.1     c-0.1,0-0.1,0-0.1,0c0,0,0,0,0.1,0c0-0.1,0-0.1-0.1-0.1c-0.1,0-0.2,0-0.4,0c-0.1,0-0.3,0-0.5-0.1c-0.7-0.1-1.7-0.3-2.6-0.4     c-0.5-0.1-0.9-0.1-1.4-0.2c-0.4-0.1-0.9-0.1-1.2-0.2C62.7,33.5,62.2,33.4,62.2,33.4z"/>
      </g>
      <g fill="#ffd300">
        <path d="M57.4,31.4c0,0,0.4-0.1,1.1-0.2c0.3,0,0.7,0,1.1,0.1c0.4,0.1,0.8,0.2,1.2,0.3c0.8,0.3,1.6,0.8,2.1,1.2     c0.5,0.4,0.8,0.8,0.8,0.8s-0.5,0-1.1-0.2c-0.6-0.1-1.4-0.4-2.2-0.7c-0.4-0.1-0.8-0.3-1.1-0.4c-0.4-0.1-0.7-0.3-1-0.4     C57.8,31.6,57.4,31.4,57.4,31.4z"/>
      </g>
      <g fill="#ffd300">
        <path d="M53.9,31.5c0,0,0.4-0.2,1.1-0.2c0.3,0,0.7,0,1.1,0c0.4,0,0.8,0.1,1.3,0.3c0.8,0.3,1.6,0.7,2.1,1.1     c0.5,0.4,0.7,0.8,0.7,0.8s-0.5,0-1.1-0.2c-0.3-0.1-0.7-0.2-1-0.3c-0.4-0.1-0.7-0.2-1.1-0.3c-0.4-0.1-0.8-0.2-1.1-0.4     c-0.4-0.1-0.7-0.3-1-0.4C54.3,31.7,53.9,31.5,53.9,31.5z"/>
      </g>
      <g fill="#ffd300">
        <path d="M65.6,38.4c0,0,0.4-0.2,1-0.4c0.6-0.2,1.4-0.3,2.3-0.4c0.8,0,1.7,0.1,2.3,0.3c0.6,0.2,1,0.4,1,0.4s-0.4,0.2-1,0.3     c-0.6,0.1-1.4,0.3-2.2,0.3c-0.8,0-1.6-0.1-2.2-0.2C66,38.6,65.6,38.4,65.6,38.4z"/>
      </g>
      <g fill="#ffd300">
        <path d="M65.9,36.7c0,0,0.4-0.2,1-0.4c0.3-0.1,0.7-0.1,1-0.1c0.4,0,0.8,0,1.2,0.1c0.8,0.2,1.6,0.5,2.1,0.8     c0.5,0.3,0.8,0.7,0.8,0.7s-0.4,0-1,0c-0.3,0-0.6-0.1-1-0.1c-0.4,0-0.7-0.1-1.1-0.2c-0.4-0.1-0.7-0.1-1.1-0.2     c-0.3-0.1-0.7-0.2-1-0.3C66.3,36.9,65.9,36.7,65.9,36.7z"/>
      </g>
      <g fill="#ffd300">
        <path d="M72.3,40.2c0,0,0.5-0.1,1.1-0.2c0.7-0.1,1.5,0,2.4,0.1c0.4,0.1,0.8,0.2,1.2,0.3c0.2,0.1,0.5,0.2,0.7,0.4     c0.2,0.2,0.3,0.4,0.4,0.5c0.2,0.3,0.2,0.5,0.3,0.6c0.1,0.1,0.3,0.1,0.2,0.1c0,0-0.1,0.1-0.3,0.1c-0.3,0-0.6-0.2-0.8-0.4     c-0.1-0.1-0.3-0.2-0.4-0.2c-0.1,0-0.2,0-0.4,0c-0.4,0-0.8-0.1-1.3-0.1c-0.8-0.1-1.7-0.4-2.3-0.6C72.7,40.4,72.3,40.2,72.3,40.2z"/>
      </g>
      <g fill="#ffd300">
        <path d="M74.3,39.2c0,0,0.1-0.1,0.2-0.2c0.2-0.1,0.4-0.2,0.7-0.3c0.3-0.1,0.7-0.1,1.1,0c0.4,0.1,0.8,0.3,1.2,0.5     c0.1,0.1,0.3,0.3,0.5,0.4c0.2,0.1,0.3,0.3,0.4,0.4c0.2,0.3,0.4,0.6,0.6,0.9c0.3,0.5,0.3,1,0.3,1s-0.4-0.2-0.9-0.5     c-0.2-0.2-0.5-0.4-0.8-0.6c-0.1-0.1-0.3-0.2-0.4-0.3c-0.1-0.1-0.3-0.2-0.4-0.3c-0.3-0.2-0.6-0.3-0.8-0.5     c-0.3-0.1-0.6-0.2-0.8-0.3C74.7,39.3,74.3,39.2,74.3,39.2z"/>
      </g>
      <g fill="#ffd300">
        <path d="M75.5,42.6c0,0,0.6,0.1,1.4,0.3c0.4,0.1,0.9,0.2,1.4,0.3c0.5,0.1,1,0.3,1.6,0.4c0.5,0.2,1.1,0.3,1.6,0.5     c0.5,0.1,1,0.3,1.4,0.4c0.8,0.3,1.3,0.5,1.3,0.5s-0.6,0.2-1.5,0.2c-0.9,0-2-0.1-3.1-0.4c-0.6-0.2-1.1-0.4-1.6-0.6     c-0.5-0.2-0.9-0.5-1.3-0.7C75.9,43.1,75.5,42.6,75.5,42.6z"/>
      </g>
      <g fill="#ffd300">
        <path d="M78.5,47.3c0,0,0.4,0,0.9,0c0.3,0,0.6,0,0.9,0.1c0.3,0,0.6,0.1,1,0.2c0.6,0.1,1.3,0.3,1.8,0.5c0.5,0.2,0.8,0.4,0.8,0.4     s-0.4,0.2-0.9,0.3c-0.5,0.1-1.3,0.1-2,0c-0.4-0.1-0.7-0.2-1-0.3c-0.3-0.1-0.6-0.3-0.8-0.5C78.8,47.6,78.5,47.3,78.5,47.3z"/>
      </g>
      <g fill="#ffd300">
        <path d="M81,50.2c0,0,0.4-0.2,1-0.4c0.6-0.2,1.5-0.3,2.3-0.3c0.8,0,1.7,0.1,2.3,0.3c0.6,0.1,1,0.4,1,0.4s-0.4,0.2-1,0.4     c-0.6,0.2-1.5,0.3-2.3,0.3c-0.8,0-1.7-0.1-2.3-0.3C81.4,50.4,81,50.2,81,50.2z"/>
      </g>
      <g fill="#ffd300">
        <path d="M81.8,46.5c0,0,0.5-0.1,1.3-0.1c0.4,0,0.8,0,1.3,0.1c0.5,0.1,1,0.2,1.5,0.4c0.3,0.1,0.6,0.3,0.9,0.6     c0.2,0.3,0.3,0.6,0.3,0.9c0,0.2,0.1,0.4,0.1,0.6c0,0.2,0.1,0.4,0.1,0.6c0.2,0.7,0.3,1.2,0.3,1.2s-0.5-0.2-1-0.9     c-0.1-0.2-0.2-0.3-0.3-0.6c-0.1-0.2-0.2-0.5-0.3-0.7c-0.1-0.2-0.2-0.4-0.2-0.4c0-0.1-0.1-0.1-0.3-0.2c-0.4-0.2-0.9-0.3-1.3-0.5     c-0.4-0.2-0.8-0.3-1.2-0.5C82.2,46.7,81.8,46.5,81.8,46.5z"/>
      </g>
      <g fill="#ffd300">
        <path d="M85.7,52.9c0,0,0.4-0.1,0.9,0c0.5,0.1,1.2,0.3,1.8,0.5c0.6,0.3,1.2,0.7,1.6,1c0.4,0.3,0.6,0.7,0.6,0.7s-0.4,0.1-0.9,0     c-0.5-0.1-1.2-0.3-1.8-0.5c-0.6-0.3-1.2-0.7-1.6-1C85.9,53.2,85.7,52.9,85.7,52.9z"/>
      </g>
      <g fill="#ffd300">
        <path d="M82,51.5c0,0,0.6-0.2,1.4-0.2c0.8-0.1,1.9-0.1,3,0c1.1,0.1,2.2,0.3,3,0.6c0.8,0.2,1.3,0.5,1.3,0.5s-0.6,0.2-1.4,0.2     c-0.8,0.1-1.9,0.1-3,0c-1.1-0.1-2.2-0.3-3-0.6C82.6,51.8,82,51.5,82,51.5z"/>
      </g>
      <g fill="#ffd300">
        <path d="M77.5,50.9c0,0,0.4-0.2,1-0.3c0.6-0.1,1.3-0.2,2-0.4c0.2-0.1,0.3-0.1,0.5-0.2c0.1-0.1,0.3-0.1,0.4-0.2     c0.3-0.2,0.5-0.3,0.7-0.5c0.4-0.3,0.6-0.7,0.6-0.7c0,0,0.2,0.4,0,1.1c-0.1,0.3-0.3,0.7-0.7,1c-0.2,0.1-0.3,0.3-0.5,0.4     c-0.2,0.1-0.4,0.2-0.6,0.3c-0.9,0.3-1.8,0.1-2.4,0C77.9,51.1,77.5,50.9,77.5,50.9z"/>
      </g>
      <g fill="#ffd300">
        <path d="M76.3,49.3c0,0,0.4-0.4,1.2-0.7c0.4-0.2,0.8-0.3,1.3-0.4c0.5-0.1,1-0.2,1.6-0.2c0.3,0,0.5,0,0.8,0c0.3,0,0.5,0.1,0.8,0.1     c0.5,0.1,1,0.2,1.4,0.4c0.8,0.3,1.2,0.6,1.2,0.6s-0.6,0.1-1.3,0.1c-0.4,0-0.8,0-1.3,0c-0.5,0-1,0-1.5,0c-1,0-2,0-2.8,0     C76.9,49.3,76.3,49.3,76.3,49.3z"/>
      </g>
      <g fill="#ffd300">
        <path d="M72.9,46c0,0,0.4-0.3,1.1-0.4c0.4-0.1,0.8-0.2,1.2-0.2c0.4,0,0.9,0,1.4,0.1c0.5,0.1,0.9,0.2,1.4,0.4     c0.4,0.2,0.8,0.3,1.1,0.5c0.6,0.4,0.9,0.8,0.9,0.8s-0.5,0-1.2-0.1c-0.3,0-0.7-0.1-1.1-0.2c-0.4-0.1-0.8-0.1-1.3-0.2     c-0.4-0.1-0.9-0.1-1.3-0.2c-0.4-0.1-0.8-0.1-1.1-0.2C73.3,46.1,72.9,46,72.9,46z"/>
      </g>
      <g fill="#ffd300">
        <path d="M70.8,42.1c0,0,0.6-0.2,1.6-0.2c1,0,2.2,0.2,3.4,0.7c0.6,0.2,1.2,0.5,1.7,0.9c0.5,0.3,0.9,0.7,1.2,1.1     c0.3,0.4,0.5,0.7,0.6,1c0.1,0.3,0.2,0.4,0.2,0.4s-0.1-0.1-0.4-0.3c-0.2-0.2-0.5-0.4-0.9-0.6c-0.8-0.5-1.8-0.9-2.9-1.4     c-0.3-0.1-0.5-0.2-0.8-0.3c-0.3-0.1-0.5-0.2-0.8-0.3c-0.5-0.2-1-0.4-1.4-0.5C71.4,42.3,70.8,42.1,70.8,42.1z"/>
      </g>
      <g fill="#ffd300">
        <path d="M65.3,40.9c0,0,0.1,0,0.4,0.1c0.2,0.1,0.6,0.2,1,0.3c0.4,0.1,0.8,0.3,1.3,0.5c0.5,0.2,1,0.3,1.5,0.5     c0.5,0.2,1,0.3,1.5,0.5c0.5,0.1,0.9,0.3,1.3,0.4c0.8,0.2,1.4,0.4,1.4,0.4s-0.6,0.2-1.4,0.3c-0.4,0-0.9,0-1.5,0     c-0.3,0-0.6-0.1-0.8-0.1c-0.3-0.1-0.6-0.1-0.8-0.2c-0.5-0.2-1.1-0.4-1.6-0.7c-0.5-0.3-0.9-0.6-1.2-0.9     C65.6,41.4,65.3,40.9,65.3,40.9z"/>
      </g>
      <g fill="#ffd300">
        <path d="M67,39.7c0,0,0.5-0.1,1.2,0c0.4,0,0.8,0.1,1.2,0.2c0.4,0.1,0.9,0.3,1.3,0.5c0.9,0.4,1.7,0.9,2.2,1.4     c0.5,0.5,0.8,0.9,0.8,0.9s-0.5-0.1-1.2-0.3c-0.7-0.2-1.5-0.5-2.3-0.9c-0.4-0.2-0.8-0.4-1.2-0.6c-0.4-0.2-0.7-0.4-1-0.6     C67.4,40,67,39.7,67,39.7z"/>
      </g>
      <g fill="#ffd300">
        <path d="M47.6,38.4c0,0,0.7-0.1,1.8,0.1c1,0.1,2.4,0.4,3.7,0.8c1.3,0.4,2.6,1,3.5,1.6c0.9,0.5,1.5,1,1.5,1s-0.7-0.1-1.7-0.3     c-1-0.2-2.3-0.6-3.6-1c-0.6-0.2-1.3-0.4-1.9-0.7c-0.6-0.2-1.2-0.4-1.6-0.7C48.2,38.8,47.6,38.4,47.6,38.4z"/>
      </g>
      <g fill="#ffd300">
        <path d="M42,38.5c0,0,0.7,0.1,1.7,0.3c1,0.3,2.3,0.7,3.6,1.2c1.3,0.5,2.5,1.2,3.4,1.7c0.9,0.5,1.4,1,1.4,1s-0.7-0.1-1.7-0.3     c-1-0.3-2.3-0.7-3.6-1.2c-1.3-0.5-2.5-1.2-3.4-1.7C42.5,39,42,38.5,42,38.5z"/>
      </g>
      <g fill="#ffd300">
        <path d="M38.3,43.2c0,0,0.4-0.2,1-0.4c0.6-0.2,1.4-0.3,2.2-0.3c0.8,0,1.6,0.1,2.2,0.3c0.3,0.1,0.5,0.2,0.7,0.2     c0.2,0,0.2-0.1,0.2-0.1c0,0,0,0.1-0.1,0.3c-0.2,0.2-0.5,0.3-0.8,0.3c-0.6,0.2-1.4,0.3-2.2,0.3c-0.8,0-1.6-0.1-2.2-0.3     C38.7,43.4,38.3,43.2,38.3,43.2z"/>
      </g>
      <g fill="#ffd300">
        <path d="M34.7,44.4c0,0,0.6,0.1,1.5,0.3c0.4,0.1,0.9,0.2,1.5,0.3c0.5,0.1,1.1,0.2,1.7,0.4c0.6,0.1,1.1,0.2,1.7,0.4     c0.5,0.1,1,0.2,1.5,0.3c0.9,0.2,1.5,0.4,1.5,0.4s-0.6,0.2-1.5,0.3c-0.5,0.1-1,0.1-1.6,0c-0.3,0-0.6,0-0.9-0.1     c-0.3,0-0.6-0.1-0.9-0.2c-0.6-0.1-1.2-0.3-1.7-0.5c-0.5-0.2-1-0.4-1.4-0.7C35.2,44.9,34.7,44.4,34.7,44.4z"/>
      </g>
      <g fill="#ffd300">
        <path d="M35.6,47.8c0,0,0.3-0.2,0.8-0.3c0.5-0.1,1.1-0.2,1.6-0.2c0.6,0,1.2,0.1,1.6,0.3c0.5,0.1,0.8,0.3,0.8,0.3     s-0.3,0.2-0.7,0.4c-0.5,0.2-1.1,0.3-1.7,0.3c-0.6,0-1.2-0.1-1.7-0.3C35.9,48,35.6,47.8,35.6,47.8z"/>
      </g>
      <g fill="#ffd300">
        <path d="M32.3,49.7c0,0,0.7-0.1,1.6,0c0.5,0,1,0,1.6,0.1c0.6,0,1.2,0.1,1.9,0.1c1.3,0.1,2.5,0.3,3.5,0.4c1,0.1,1.6,0.3,1.6,0.3     s-0.6,0.2-1.6,0.4c-1,0.2-2.3,0.2-3.6,0.1c-0.6-0.1-1.3-0.2-1.9-0.3c-0.6-0.1-1.2-0.3-1.6-0.5C32.9,50.1,32.3,49.7,32.3,49.7z"/>
      </g>
      <g fill="#ffd300">
        <path d="M33.2,53.9c0,0,0.5-0.2,1.2-0.4c0.7-0.2,1.7-0.3,2.7-0.3c1,0,2,0.1,2.7,0.3c0.7,0.1,1.2,0.4,1.2,0.4s-0.5,0.2-1.2,0.4     c-0.7,0.2-1.7,0.3-2.7,0.3c-1,0-2-0.1-2.7-0.3C33.7,54.1,33.2,53.9,33.2,53.9z"/>
      </g>
      <g fill="#ffd300">
        <path d="M29.4,52.4c0,0,0.1-0.1,0.3-0.2c0.2-0.1,0.5-0.2,0.9-0.3c0.7-0.2,1.7-0.3,2.7-0.4c1,0,2,0,2.7,0.2     c0.7,0.1,1.2,0.3,1.2,0.3s-0.5,0.2-1.2,0.4c-0.7,0.2-1.7,0.3-2.7,0.3c-1,0-2-0.1-2.7-0.2C30,52.4,29.4,52.4,29.4,52.4z"/>
      </g>
      <g fill="#ffd300">
        <path d="M33,56.5c0,0,0,0.2,0.3,0.3c0.3,0.1,0.6,0,1.1,0c1-0.2,2.3-0.3,3.6-0.3c1.3,0,2.7,0.1,3.6,0.3c0.5,0.1,0.9,0.2,1.1,0.1     c0.1,0,0.2-0.1,0.2-0.2c0-0.1,0-0.1,0-0.1s0,0,0.1,0.1c0,0.1,0,0.2-0.1,0.4c-0.1,0.2-0.3,0.3-0.6,0.3c-0.2,0-0.4,0.1-0.7,0.1     c-1,0.2-2.3,0.3-3.6,0.3c-1.3,0-2.7-0.1-3.6-0.3c-0.5-0.1-1-0.2-1.2-0.5C33,56.8,33,56.7,33,56.6C33,56.5,33,56.5,33,56.5z"/>
      </g>
      <g fill="#ffd300">
        <path d="M30.8,55.8c0,0,0.5-0.2,1.2-0.3c0.3-0.1,0.7-0.1,1.2-0.2c0.4-0.1,0.9-0.1,1.3-0.1c0.9-0.1,1.8-0.1,2.5-0.1     c0.7,0,1.2,0.1,1.2,0.1s-0.4,0.3-1.1,0.6c-0.7,0.3-1.6,0.5-2.6,0.6c-0.5,0-1,0-1.4,0c-0.4,0-0.9-0.1-1.2-0.2     C31.3,56.1,30.8,55.8,30.8,55.8z"/>
      </g>
      <g fill="#ffd300">
        <path d="M30.7,60c0,0,0.6-0.2,1.4-0.4c0.8-0.2,2-0.3,3.1-0.3c1.1,0,2.3,0.1,3.1,0.3c0.8,0.1,1.4,0.4,1.4,0.4s-0.6,0.2-1.4,0.4     c-0.8,0.2-2,0.3-3.1,0.3c-1.1,0-2.3-0.1-3.1-0.3C31.3,60.2,30.7,60,30.7,60z"/>
      </g>
      <g fill="#ffd300">
        <path d="M33.1,66.4c0,0,0.1-0.8,0.4-1.8c0.1-0.5,0.3-1.2,0.5-1.8c0.2-0.7,0.4-1.3,0.6-2c0.2-0.7,0.4-1.4,0.6-2     c0.2-0.7,0.3-1.3,0.4-1.8c0.2-1.1,0.4-1.8,0.4-1.8s0.1,0.2,0.1,0.5c0.1,0.3,0.2,0.8,0.2,1.4c0,0.6,0,1.2-0.1,2     c-0.1,0.7-0.3,1.5-0.5,2.2c-0.2,0.7-0.5,1.4-0.8,2.1c-0.3,0.6-0.6,1.2-0.9,1.7C33.6,65.8,33.1,66.4,33.1,66.4z"/>
      </g>
      <g fill="#ffd300">
        <path d="M43.6,50.8c0,0,0.1,0.1,0.4,0.2c0.2,0.1,0.6,0.4,0.9,0.7c0.3,0.3,0.7,0.8,1,1.3c0.3,0.5,0.5,1.2,0.6,1.8     c0.1,0.3,0.1,0.7,0.1,0.9c0,0.3,0,0.4,0.1,0.6c0,0.1,0.1,0.2,0.2,0.3c0.1,0.1,0.1,0.2,0.2,0.3c0.1,0.2,0.3,0.3,0.5,0.5     c0.3,0.3,0.6,0.6,0.8,0.8c0.2,0.2,0.2,0.4,0.2,0.4s-0.1-0.1-0.4-0.2c-0.2-0.1-0.6-0.2-1-0.4c-0.2-0.1-0.4-0.2-0.7-0.4     c-0.1-0.1-0.3-0.2-0.4-0.3c-0.1-0.1-0.2-0.2-0.3-0.4c-0.2-0.3-0.4-0.7-0.4-1c0-0.3-0.1-0.6-0.1-0.9c-0.2-1.1-0.6-2.2-0.9-2.9     C44,51.4,43.6,50.8,43.6,50.8z"/>
      </g>
      <g fill="#ffd300">
        <path d="M46.6,47.3c0,0,0.1,0.2,0.2,0.4c0.1,0.3,0.4,0.6,0.7,0.9c0.2,0.2,0.4,0.3,0.6,0.5c0.2,0.2,0.5,0.3,0.7,0.5     c0.5,0.4,1,0.7,1.6,1c0.5,0.3,1.1,0.6,1.7,0.9c0.6,0.3,1.1,0.5,1.5,0.6c0.2,0,0.4,0,0.5-0.1c0.1-0.1,0.2-0.2,0.3-0.3     c0.1-0.2,0-0.4,0-0.4c0,0,0.2,0.1,0.3,0.4c0,0.2,0,0.4-0.2,0.6c-0.2,0.2-0.5,0.4-0.8,0.5c-0.3,0.1-0.7,0-1,0     c-0.3-0.1-0.6-0.1-0.9-0.2c-0.6-0.2-1.3-0.5-1.9-0.9c-0.6-0.4-1.2-0.8-1.7-1.3c-0.3-0.2-0.5-0.5-0.7-0.7     c-0.2-0.2-0.4-0.5-0.5-0.7c-0.3-0.5-0.4-1-0.4-1.3C46.6,47.4,46.6,47.3,46.6,47.3z"/>
      </g>
      <g fill="#ffd300">
        <path d="M48.4,46c0,0,0.2,0.2,0.5,0.5c0.3,0.3,0.8,0.7,1.3,1.1c0.6,0.4,1.3,0.8,2.1,1.2c0.8,0.4,1.7,0.7,2.6,0.9     c1.8,0.5,3.7,0.8,5.1,1.2c0.4,0.1,0.7,0.2,0.9,0.2c0.3,0,0.5,0,0.6-0.2c0.1-0.1,0.1-0.3,0.1-0.4c0-0.1-0.1-0.1-0.1-0.1     s0.1,0,0.1,0.1c0.1,0.1,0.1,0.3,0,0.6c-0.1,0.3-0.4,0.5-0.8,0.5c-0.3,0.1-0.7,0-1,0c-1.5,0-3.5-0.1-5.4-0.7     c-0.5-0.2-1-0.3-1.4-0.5c-0.5-0.2-0.9-0.4-1.3-0.7c-0.8-0.5-1.5-1.1-2-1.6c-0.5-0.6-0.9-1.1-1.1-1.5c-0.1-0.2-0.2-0.4-0.2-0.5     C48.5,46.1,48.4,46,48.4,46z"/>
      </g>
      <g fill="#ffd300">
        <path d="M44.9,42.3c0,0,0.4,0.1,1,0.3c0.3,0.1,0.6,0.2,0.9,0.3c0.3,0.1,0.7,0.2,1.1,0.4c0.4,0.1,0.7,0.2,1.1,0.4     c0.3,0.1,0.7,0.2,1,0.3c0.6,0.2,1,0.4,1,0.4s-0.4,0.2-1,0.3c-0.3,0.1-0.7,0.1-1.1,0c-0.2,0-0.4,0-0.6-0.1c-0.2,0-0.4-0.1-0.6-0.2     c-0.4-0.2-0.8-0.3-1.1-0.6c-0.3-0.2-0.6-0.5-0.8-0.7C45.1,42.7,44.9,42.3,44.9,42.3z"/>
      </g>
      <g fill="#ffd300">
        <path d="M53.3,45.2c0,0,0.1-0.1,0.2-0.3c0.1-0.2,0.3-0.4,0.4-0.7c0.1-0.2,0.2-0.3,0.3-0.5c0.1-0.2,0.2-0.4,0.3-0.6     c0.2-0.4,0.5-0.8,0.8-1.2c0.6-0.8,1.2-1.5,1.8-2c0.5-0.5,1-0.8,1-0.8s-0.1,0.5-0.4,1.2c-0.3,0.7-0.8,1.5-1.3,2.3     c-0.3,0.4-0.6,0.8-0.9,1.1c-0.1,0.2-0.3,0.3-0.4,0.5c-0.1,0.1-0.3,0.3-0.5,0.4c-0.3,0.2-0.6,0.4-0.8,0.5     C53.5,45.2,53.3,45.2,53.3,45.2z"/>
      </g>
      <g fill="#ffd300">
        <path d="M59.4,40.6c0,0,0.1,0.2,0.1,0.5c0,0.3-0.2,0.8-0.5,1.3c-0.3,0.4-0.6,0.9-1,1.4c-0.4,0.5-0.8,1.1-1.2,1.6     c-0.8,1.1-1.7,2.1-2.4,2.9c-0.7,0.8-1.2,1.3-1.2,1.3s0.2-0.7,0.6-1.7c0.4-1,1.2-2.2,2-3.3c0.9-1.1,1.9-2.1,2.7-2.8     c0.4-0.3,0.7-0.6,0.8-0.8C59.4,40.8,59.4,40.6,59.4,40.6z"/>
      </g>
      <g fill="#ffd300">
        <path d="M61.5,45.4c0,0,0.1,0.4,0,0.9c0,0.3-0.1,0.5-0.2,0.8c-0.1,0.3-0.3,0.6-0.4,0.9c-0.4,0.5-0.9,1-1.3,1.2     c-0.4,0.3-0.8,0.3-0.8,0.3s0.1-0.4,0.3-0.8c0.2-0.4,0.5-1,0.8-1.4c0.2-0.2,0.3-0.5,0.5-0.7c0.2-0.2,0.4-0.4,0.5-0.6     C61.2,45.6,61.5,45.4,61.5,45.4z"/>
      </g>
      <g fill="#ffd300">
        <path d="M61.2,40.3c0,0,0.2,0,0.4,0.2c0.1,0.1,0.2,0.3,0.3,0.4c0.1,0.2,0.2,0.4,0.3,0.6c0.1,0.2,0.2,0.4,0.3,0.6     c0.1,0.2,0.3,0.4,0.4,0.7c0.1,0.2,0.3,0.5,0.5,0.7c0.2,0.2,0.3,0.5,0.5,0.7c0.3,0.4,0.7,0.9,1.1,1.2c0.4,0.4,0.8,0.7,1.1,1     c0.3,0.3,0.7,0.5,0.9,0.7c0.2,0.2,0.4,0.3,0.4,0.3s-0.2,0-0.4,0c-0.3,0-0.7-0.1-1.1-0.3c-0.5-0.2-1-0.4-1.5-0.8     c-0.2-0.2-0.5-0.4-0.7-0.6c-0.2-0.2-0.5-0.5-0.7-0.7c-0.4-0.5-0.7-1.1-1-1.6c-0.1-0.3-0.2-0.6-0.3-0.8c-0.1-0.3-0.1-0.6-0.1-0.8     c0-0.2,0-0.5,0-0.6c0-0.2,0-0.3-0.1-0.4C61.3,40.4,61.2,40.3,61.2,40.3z"/>
      </g>
      <g fill="#ffd300">
        <path d="M68,44.4c0,0,0.1,0.1,0.2,0.2c0.1,0.1,0.3,0.2,0.5,0.4c0.2,0.2,0.5,0.4,0.7,0.6c0.2,0.2,0.5,0.4,0.8,0.6     c0.3,0.2,0.5,0.4,0.8,0.6c0.3,0.2,0.5,0.4,0.7,0.6c0.4,0.3,0.7,0.6,0.7,0.6s-0.4,0.1-1,0c-0.3,0-0.6-0.1-1-0.3     c-0.2-0.1-0.4-0.1-0.5-0.3c-0.2-0.1-0.3-0.2-0.5-0.3c-0.3-0.3-0.6-0.5-0.8-0.8c-0.2-0.3-0.4-0.6-0.5-0.9C68,44.9,68,44.4,68,44.4     z"/>
      </g>
      <g fill="#ffd300">
        <path d="M65.6,49.7c0,0,0.6-0.1,1.5-0.2c0.9,0,2,0,3.1,0.2c1.1,0.2,2.2,0.4,3.1,0.7c0.8,0.3,1.4,0.5,1.4,0.5s-0.6,0.1-1.5,0.2     c-0.9,0-2,0-3.1-0.2c-1.1-0.2-2.2-0.4-3.1-0.7C66.1,50,65.6,49.7,65.6,49.7z"/>
      </g>
      <g fill="#ffd300">
        <path d="M73.7,47.8c0,0,0.3,0.5,0.5,1.2c0.2,0.7,0.4,1.7,0.4,2.7c0,0.5,0,1-0.1,1.5c-0.1,0.5-0.4,1-0.8,1.3     c-0.4,0.3-0.8,0.3-1,0.3c-0.2,0-0.4-0.1-0.4-0.1c0,0,0.1,0,0.3-0.1c0.2-0.1,0.4-0.3,0.5-0.6c0.1-0.3,0.2-0.6,0.2-1     c0-0.4,0-0.9,0-1.3c0-1,0-1.9,0.1-2.7C73.6,48.4,73.7,47.8,73.7,47.8z"/>
      </g>
      <g fill="#ffd300">
        <path d="M76.2,52.5c0,0,0.3-0.2,0.8-0.3c0.5-0.1,1.1-0.1,1.8,0c0.6,0.1,1.2,0.3,1.7,0.6c0.4,0.2,0.7,0.5,0.7,0.5     s-0.4,0.1-0.8,0.2c-0.5,0.1-1.1,0-1.7-0.1c-0.6-0.1-1.2-0.3-1.6-0.5C76.5,52.7,76.2,52.5,76.2,52.5z"/>
      </g>
      <g fill="#ffd300">
        <path d="M76.4,55c0,0,0.3-0.2,0.7-0.4c0.4-0.2,1-0.3,1.6-0.3c0.6,0,1.1,0.2,1.6,0.4c0.4,0.2,0.7,0.4,0.7,0.4s-0.3,0.2-0.7,0.3     c-0.4,0.1-1,0.2-1.5,0.2c-0.6,0-1.1-0.1-1.5-0.3C76.7,55.2,76.4,55,76.4,55z"/>
      </g>
      <g fill="#ffd300">
        <path d="M83.9,55.9c0,0,0.4,0,1,0c0.3,0,0.6,0.1,0.9,0.1c0.3,0,0.7,0.1,1,0.2c0.3,0.1,0.7,0.1,1,0.2c0.3,0.1,0.6,0.2,0.9,0.3     c0.5,0.2,0.9,0.4,0.9,0.4s-0.4,0.2-1,0.4c-0.6,0.1-1.4,0.2-2.2,0c-0.4-0.1-0.8-0.2-1.1-0.4c-0.3-0.2-0.6-0.3-0.9-0.5     C84.2,56.3,83.9,55.9,83.9,55.9z"/>
      </g>
      <g fill="#ffd300">
        <path d="M75.6,56.8c0,0,0.4-0.2,1.1-0.3c0.7-0.1,1.6-0.1,2.5,0.1c0.9,0.2,1.7,0.5,2.3,0.8c0.6,0.3,1,0.7,1,0.7s-0.5,0.1-1.1,0     c-0.7,0-1.5-0.1-2.4-0.3c-0.4-0.1-0.8-0.2-1.2-0.3c-0.4-0.1-0.8-0.2-1.1-0.3C76.1,57,75.6,56.8,75.6,56.8z"/>
      </g>
      <g fill="#ffd300">
        <path d="M76.2,59.1c0,0,0.2-0.2,0.6-0.4c0.4-0.2,0.9-0.3,1.5-0.2c0.5,0,1,0.2,1.4,0.4c0.4,0.2,0.6,0.5,0.6,0.5s-0.3,0.2-0.7,0.2     c-0.4,0.1-0.9,0.1-1.4,0.1c-0.5,0-1-0.2-1.4-0.3C76.5,59.3,76.2,59.1,76.2,59.1z"/>
      </g>
      <g fill="#ffd300">
        <path d="M74.9,61.8c0,0,0.3-0.2,0.9-0.3c0.5-0.1,1.2-0.2,1.8-0.3c0.7,0,1.3,0.1,1.8,0.2c0.5,0.1,0.9,0.3,0.9,0.3S80,62,79.5,62.2     c-0.5,0.2-1.2,0.3-1.9,0.3c-0.7,0-1.4-0.1-1.9-0.3C75.2,62.1,74.9,61.8,74.9,61.8z"/>
      </g>
      <g fill="#ffd300">
        <path d="M72,64.3c0,0,0.5-0.1,1.1,0c0.6,0,1.5,0.2,2.2,0.4c0.8,0.3,1.5,0.6,2.1,0.9c0.5,0.3,0.9,0.7,0.9,0.7s-0.5,0.1-1.1,0     c-0.6,0-1.5-0.2-2.2-0.4c-0.8-0.3-1.5-0.6-2.1-0.9C72.4,64.6,72,64.3,72,64.3z"/>
      </g>
      <g fill="#ffd300">
        <path d="M73.7,68.9c0,0,0.1,0,0.2,0c0.2,0,0.3,0,0.5,0c0.2,0,0.5,0,0.7,0c0.2,0,0.5,0,0.7,0c0.3,0,0.5,0,0.7,0c0.2,0,0.5,0,0.7,0     c0.4,0,0.8,0,0.8,0s-0.1,0.4-0.5,0.7c-0.2,0.2-0.5,0.3-0.8,0.4c-0.2,0-0.3,0.1-0.5,0.1c-0.2,0-0.3,0-0.5,0c-0.3,0-0.7-0.1-1-0.2     c-0.3-0.1-0.6-0.3-0.7-0.5c-0.2-0.2-0.3-0.4-0.4-0.5C73.8,69,73.7,68.9,73.7,68.9z"/>
      </g>
      <g fill="#ffd300">
        <path d="M73.9,63.1c0,0,0.2-0.2,0.7-0.2c0.2,0,0.4,0,0.7,0c0.2,0,0.5,0.1,0.7,0.3c0.5,0.3,0.8,0.7,1,1.1c0.2,0.4,0.1,0.7,0.1,0.7     s-0.3-0.1-0.6-0.2c-0.2-0.1-0.4-0.1-0.5-0.2c-0.2-0.1-0.4-0.2-0.5-0.3c-0.2-0.1-0.3-0.2-0.5-0.3c-0.2-0.1-0.3-0.2-0.5-0.3     C74.1,63.3,73.9,63.1,73.9,63.1z"/>
      </g>
      <g fill="#ffd300">
        <path d="M67.5,66.7c0,0,0.4,0,0.8,0.1c0.2,0,0.5,0.1,0.7,0.2c0.3,0.1,0.5,0.2,0.8,0.3c0.5,0.2,1,0.5,1.4,0.8     c0.4,0.3,0.6,0.5,0.6,0.5s-0.3,0.1-0.8,0.1c-0.5,0-1.1-0.1-1.7-0.3c-0.6-0.2-1.1-0.6-1.4-1C67.6,67,67.5,66.7,67.5,66.7z"/>
      </g>
      <g fill="#ffd300">
        <path d="M68.5,70.9c0,0,0.1,0,0.3,0c0.2,0,0.4,0,0.7-0.1c0.3,0,0.6,0,1,0c0.3,0,0.7,0,1.1,0c0.2,0,0.3,0,0.5,0c0.2,0,0.3,0,0.5,0     c0.3,0,0.6-0.1,0.9-0.1c0.5-0.1,0.9-0.3,0.9-0.3s0,0.1-0.1,0.3c-0.1,0.2-0.2,0.4-0.5,0.6c-0.2,0.2-0.6,0.4-1,0.6     c-0.2,0.1-0.4,0.1-0.6,0.2c-0.2,0-0.4,0-0.6,0c-0.8,0-1.6-0.3-2.1-0.5c-0.3-0.1-0.5-0.3-0.7-0.4C68.5,71,68.5,70.9,68.5,70.9z"/>
      </g>
      <g fill="#ffd300">
        <path d="M63.9,69.8c0,0,0.4-0.1,0.9-0.2c0.5-0.1,1.2-0.1,1.8-0.1c0.3,0,0.7,0.1,1,0.1c0.3,0,0.6,0.1,0.8,0.2c0.2,0,0.4,0.1,0.5,0     c0.1,0,0.2-0.1,0.2-0.1c0,0,0,0.1-0.1,0.3c-0.1,0.2-0.3,0.4-0.6,0.5c-0.3,0.1-0.6,0.2-0.9,0.2c-0.3,0.1-0.7,0.1-1,0     c-0.4,0-0.7-0.1-1-0.2c-0.3-0.1-0.6-0.2-0.9-0.3C64.2,70.1,63.9,69.8,63.9,69.8z"/>
      </g>
      <g fill="#ffd300">
        <path d="M60.6,70.2c0,0,0,0.1,0.1,0.2c0.1,0.1,0.2,0.2,0.3,0.3c0,0,0,0,0,0c0,0,0.1,0,0.1,0l0.1,0c0.1,0,0.2,0,0.3,0     c0.1,0,0.3,0,0.4,0l0.4,0.1c0.6,0.1,1.2,0.3,1.6,0.4c0.4,0.2,0.8,0.4,0.8,0.4S64.5,71.9,64,72c-0.5,0.1-1.2,0.2-1.8,0.1     c-0.2,0-0.3-0.1-0.5-0.1c-0.2,0-0.3-0.1-0.5-0.2c-0.2-0.1-0.3-0.2-0.5-0.3c-0.1-0.1-0.1-0.1-0.2-0.2c0,0-0.1-0.1-0.1-0.1     c0-0.1-0.1-0.1-0.1-0.1c-0.2-0.3-0.1-0.6,0-0.8C60.5,70.2,60.6,70.2,60.6,70.2z"/>
      </g>
      <g fill="#ffd300">
        <path d="M55.9,69.9c0,0,0.2,0.4,0.6,0.8c0.2,0.2,0.4,0.3,0.7,0.5c0.1,0.1,0.3,0.1,0.4,0.2c0.2,0.1,0.3,0.1,0.5,0.2     c0.3,0.1,0.7,0.2,1.1,0.4c0.4,0.1,0.7,0.3,1,0.4c0.5,0.3,0.9,0.6,0.9,0.6S60.6,73,60,73c-0.6,0-1.4,0-2.3-0.3     c-0.2-0.1-0.4-0.2-0.6-0.3c-0.2-0.1-0.4-0.3-0.6-0.4c-0.3-0.3-0.6-0.7-0.7-1c-0.1-0.3-0.1-0.6-0.1-0.8     C55.9,70,55.9,69.9,55.9,69.9z"/>
      </g>
      <g fill="#ffd300">
        <path d="M52.1,70.8c0,0,0.4,0.1,0.8,0.4c0.2,0.1,0.5,0.2,0.7,0.4c0.3,0.1,0.5,0.3,0.8,0.4c0.3,0.1,0.5,0.3,0.8,0.4     c0.3,0.1,0.5,0.3,0.7,0.4c0.4,0.2,0.8,0.4,0.8,0.4s-0.3,0.2-0.9,0.3c-0.3,0-0.6,0-0.9,0c-0.2,0-0.4-0.1-0.5-0.1     c-0.2-0.1-0.3-0.1-0.5-0.2c-0.3-0.2-0.6-0.4-0.9-0.6c-0.3-0.2-0.5-0.5-0.6-0.7C52.2,71.2,52.1,70.8,52.1,70.8z"/>
      </g>
      <g fill="#ffd300">
        <path d="M46.3,71.8c0,0,0.1,0.1,0.2,0.2c0.2,0,0.4,0,0.8,0c0.7,0,1.6,0,2.6,0.1c0.9,0.1,1.8,0.3,2.5,0.4c0.7,0.2,1.2,0.4,1.2,0.4     s-0.5,0.2-1.2,0.3c-0.7,0.1-1.7,0.2-2.6,0.1c-1-0.1-1.9-0.4-2.6-0.6c-0.2-0.1-0.3-0.1-0.5-0.2c-0.2-0.1-0.3-0.2-0.4-0.3     C46.2,71.9,46.3,71.8,46.3,71.8z"/>
      </g>
      <g fill="#ffd300">
        <path d="M37.3,70.8c0,0,0.5-0.1,1.2-0.1c0.4,0,0.8,0,1.2,0c0.4,0,0.9,0.1,1.4,0.1c0.9,0.1,1.9,0.3,2.6,0.4     c0.7,0.2,1.2,0.4,1.2,0.4s-0.5,0.2-1.2,0.4c-0.7,0.1-1.7,0.2-2.7,0.1c-1-0.1-1.9-0.4-2.6-0.7C37.7,71.1,37.3,70.8,37.3,70.8z"/>
      </g>
      <g fill="#ffd300">
        <path d="M30.4,72.4c0,0,0.1,0,0.3,0c0.2,0,0.4,0,0.7-0.1c0.3-0.1,0.7-0.2,1.1-0.2c0.4-0.1,0.8-0.1,1.3-0.1c0.9,0,1.7,0,2.4,0.1     c0.7,0.1,1.1,0.3,1.1,0.3s-0.4,0.2-1.1,0.4c-0.6,0.2-1.5,0.3-2.4,0.4c-0.4,0-0.9,0-1.3,0c-0.4,0-0.8-0.1-1.1-0.2     c-0.4-0.1-0.6-0.2-0.8-0.4C30.4,72.5,30.4,72.4,30.4,72.4z"/>
      </g>
      <g fill="#ffd300">
        <path d="M30.4,70.1c0,0,0.6-0.2,1.5-0.3c0.5-0.1,1-0.1,1.6-0.1c0.6,0,1.2,0,1.8,0c0.6,0,1.1,0,1.6-0.1c0.5-0.1,0.9-0.3,1.3-0.5     c0.7-0.4,1-1,1-1s0,0.2,0,0.4c0,0.3-0.2,0.7-0.5,1.1c-0.3,0.4-0.8,0.8-1.4,1c-0.6,0.2-1.3,0.3-1.9,0.3c-1.3,0-2.5-0.2-3.4-0.4     C31,70.3,30.4,70.1,30.4,70.1z"/>
      </g>
      <g fill="#ffd300">
        <path d="M34.1,66.1c0,0,0.1,0.1,0.2,0.2c0.2,0,0.4,0,0.7-0.1c0.7-0.2,1.6-0.3,2.6-0.3c0.5,0,0.9,0,1.4,0.1c0.4,0,0.8,0.1,1.1,0     c0.3,0,0.5-0.1,0.7-0.2c0.2-0.1,0.2-0.2,0.2-0.2c0,0,0,0.1,0,0.4c-0.1,0.2-0.3,0.5-0.7,0.7c-0.4,0.2-0.8,0.3-1.3,0.4     c-0.4,0.1-0.9,0.1-1.4,0.1c-0.9,0-1.9-0.1-2.6-0.3c-0.3-0.1-0.7-0.2-0.9-0.4C34,66.2,34.1,66.1,34.1,66.1z"/>
      </g>
      <g fill="#ffd300">
        <path d="M36.7,64.1c0,0,0.1,0.1,0.3,0.1c0.2,0,0.5-0.1,1-0.2c0.8-0.2,2-0.3,3.1-0.3c1.1,0,2.3,0.1,3.1,0.3     c0.4,0.1,0.7,0.1,0.9,0.1c0.2,0,0.4-0.1,0.4-0.1c0,0,0,0.2-0.2,0.4c-0.2,0.2-0.6,0.4-1,0.4c-0.9,0.2-2,0.3-3.1,0.3     c-1.1,0-2.3-0.1-3.1-0.3c-0.4-0.1-0.8-0.1-1.1-0.3C36.7,64.3,36.7,64.1,36.7,64.1z"/>
      </g>
      <g fill="#ffd300">
        <path d="M43.3,57.8c0,0,0.1,0.1,0.1,0.4c0,0.2,0.1,0.6,0,1c-0.1,0.4-0.3,0.9-0.7,1.3c-0.2,0.2-0.4,0.4-0.6,0.6     c-0.2,0.2-0.4,0.3-0.7,0.5c-0.2,0.1-0.5,0.2-0.7,0.3c-0.3,0.1-0.5,0.1-0.8,0.2c-0.5,0.1-1,0.1-1.3,0.1c-0.8,0-1.3-0.2-1.3-0.2     s0.5-0.3,1.2-0.5c0.3-0.1,0.7-0.3,1.2-0.4c0.2-0.1,0.4-0.2,0.6-0.2c0.2-0.1,0.4-0.2,0.6-0.3c0.2-0.1,0.4-0.2,0.5-0.3     c0.2-0.1,0.4-0.2,0.5-0.4c0.3-0.3,0.6-0.5,0.8-0.8c0.2-0.3,0.4-0.5,0.4-0.7C43.2,58,43.3,57.8,43.3,57.8z"/>
      </g>
      <g fill="#ffd300">
        <path d="M47.8,59.9c0,0-0.1,0.4-0.5,0.8c-0.2,0.2-0.4,0.4-0.6,0.7c-0.3,0.2-0.6,0.4-0.9,0.6c-0.6,0.3-1.3,0.5-1.9,0.5     c-0.5,0-0.9-0.1-0.9-0.1s0.3-0.3,0.7-0.6c0.4-0.3,1-0.7,1.5-1c0.3-0.1,0.6-0.3,0.9-0.4c0.3-0.1,0.6-0.2,0.8-0.3     C47.4,60,47.8,59.9,47.8,59.9z"/>
      </g>
      <g fill="#ffd300">
        <path d="M48.2,48.9c0,0-0.6,0.3-1.5,0.7c-0.9,0.4-2,0.8-3.2,1.3c-0.6,0.2-1.2,0.5-1.7,0.7c-0.5,0.2-1,0.5-1.3,0.7     c-0.3,0.3-0.6,0.5-0.7,0.8c-0.1,0.2-0.2,0.4-0.2,0.4c0,0-0.1-0.2,0-0.5c0-0.3,0.1-0.8,0.5-1.2c0.3-0.4,0.8-0.9,1.3-1.2     c0.5-0.3,1.1-0.6,1.7-0.9c0.6-0.2,1.2-0.5,1.8-0.6c0.6-0.1,1.2-0.2,1.7-0.3C47.5,48.8,48.2,48.9,48.2,48.9z"/>
      </g>
      <g fill="#ffd300">
        <path d="M46.7,44.6c0,0-0.1,0.1-0.2,0.3c-0.1,0.2-0.2,0.5-0.3,0.8c-0.1,0.3-0.3,0.7-0.5,1.2c-0.2,0.4-0.5,0.9-1,1.3     c-0.2,0.2-0.5,0.3-0.8,0.4c-0.3,0.1-0.6,0.1-0.8,0.2c-0.5,0-1-0.1-1.3-0.2c-0.7-0.2-1.2-0.4-1.2-0.4s0.1-0.1,0.3-0.2     c0.2-0.1,0.5-0.2,0.9-0.2c0.4-0.1,0.8-0.1,1.2-0.2c0.2,0,0.3-0.1,0.5-0.2c0.2-0.1,0.3-0.2,0.5-0.3c0.3-0.2,0.6-0.6,0.9-0.9     c0.3-0.3,0.6-0.7,0.8-1c0.3-0.3,0.6-0.5,0.8-0.6C46.6,44.6,46.7,44.6,46.7,44.6z"/>
      </g>
      <g fill="#ffd300">
        <path d="M47.2,39.5c0,0-0.5,0.4-1.5,0.7c-0.5,0.2-1,0.3-1.6,0.5c-0.6,0.1-1.3,0.2-1.9,0.3c-0.3,0-0.7,0-1,0c-0.3,0-0.6,0-0.9-0.1     c-0.6-0.1-1.2-0.2-1.6-0.3c-1-0.3-1.5-0.6-1.5-0.6s0.7-0.1,1.6-0.1c0.5,0,1,0,1.6-0.1c0.6,0,1.2-0.1,1.8-0.1     c0.6,0,1.2-0.1,1.8-0.1c0.6,0,1.1-0.1,1.6-0.1C46.5,39.5,47.2,39.5,47.2,39.5z"/>
      </g>
      <g fill="#ffd300">
        <path d="M46.3,36.6c0,0-0.2-0.1-0.4,0c-0.3,0-0.6,0.2-1.1,0.5c-0.9,0.4-2.2,0.9-3.5,1.3c-1.3,0.4-2.6,0.7-3.6,0.8     c-1,0.1-1.7,0.1-1.7,0.1s0.6-0.4,1.5-0.8c0.9-0.4,2.2-0.9,3.5-1.3c1.3-0.4,2.6-0.7,3.6-0.8c0.5-0.1,1-0.1,1.3,0     C46.2,36.4,46.3,36.6,46.3,36.6z"/>
      </g>
      <g fill="#ffd300">
        <path d="M28.3,46c0,0,0,0.1,0,0.4c-0.1,0.2-0.2,0.6-0.4,1c-0.2,0.4-0.6,0.8-1,1.1c-0.4,0.3-1,0.6-1.6,0.7     c-0.2,0.1-0.6,0.1-0.8,0.1c-0.3,0-0.5,0-0.8,0c-0.5,0-1-0.1-1.4-0.2c-0.8-0.2-1.3-0.4-1.3-0.4s0.5-0.2,1.3-0.3     c0.4-0.1,0.8-0.1,1.3-0.2c0.2,0,0.5-0.1,0.7-0.1c0.2,0,0.4-0.1,0.7-0.2c0.4-0.1,0.9-0.3,1.3-0.5c0.4-0.2,0.8-0.4,1.1-0.6     c0.3-0.2,0.5-0.4,0.7-0.6C28.2,46.1,28.3,46,28.3,46z"/>
      </g>
      <g fill="#ffd300">
        <path d="M46.5,52.7c0,0,0.7,0,1.7,0.2c0.5,0.1,1.1,0.1,1.7,0.2c0.6,0.1,1.2,0.2,1.9,0.3c0.6,0.1,1.3,0.2,1.9,0.3     c0.6,0.1,1.2,0.2,1.6,0.3c1,0.2,1.6,0.4,1.6,0.4s-0.6,0.2-1.7,0.4c-0.5,0.1-1.1,0.1-1.7,0.1c-0.6,0-1.3-0.1-2-0.2     c-0.7-0.1-1.3-0.3-1.9-0.5c-0.6-0.2-1.2-0.4-1.6-0.6C47,53.2,46.5,52.7,46.5,52.7z"/>
      </g>
      <g fill="#ffd300">
        <path d="M64.9,42.4c0,0-0.1,0.1-0.4,0.3c-0.2,0.1-0.6,0.4-0.9,0.6c-0.4,0.3-0.8,0.6-1.2,0.9c-0.4,0.4-0.9,0.7-1.3,1.1     c-0.4,0.4-0.8,0.8-1.2,1.3c-0.2,0.2-0.3,0.4-0.5,0.6c-0.2,0.2-0.3,0.4-0.4,0.6c-0.3,0.4-0.5,0.7-0.6,0.9     c-0.2,0.2-0.3,0.4-0.3,0.4s0-0.2,0-0.4c0-0.3,0.1-0.7,0.2-1.1c0.1-0.5,0.4-1,0.7-1.5c0.2-0.3,0.3-0.5,0.5-0.8     c0.2-0.3,0.4-0.5,0.7-0.7c0.2-0.2,0.5-0.4,0.8-0.6c0.2-0.2,0.5-0.4,0.8-0.5c0.5-0.3,1.1-0.5,1.5-0.6c0.5-0.1,0.9-0.2,1.1-0.2     C64.7,42.4,64.9,42.4,64.9,42.4z"/>
      </g>
      <g fill="#ffd300">
        <path d="M63.2,37c0,0-0.2,0.4-0.6,0.9c-0.4,0.5-1,1.1-1.7,1.6c-0.7,0.5-1.4,0.9-1.9,1.2c-0.5,0.3-0.8,0.7-0.8,0.7s0-0.1,0-0.3     c0-0.2,0.1-0.5,0.3-0.8c0.2-0.3,0.4-0.6,0.7-0.9c0.3-0.3,0.6-0.6,1-0.8c0.7-0.5,1.4-0.9,2-1.2C62.7,37.1,63.2,37,63.2,37z"/>
      </g>
      <g fill="#ffd300">
        <path d="M62.7,47.9c0,0,0.2,0.5,0.6,0.9c0.2,0.2,0.5,0.4,0.9,0.7c0.3,0.2,0.7,0.5,1.1,0.8c0.7,0.6,1.4,1.2,1.9,1.7     c0.5,0.5,0.8,0.9,0.8,0.9s-0.5,0-1.2-0.3c-0.7-0.2-1.5-0.7-2.3-1.3c-0.4-0.3-0.7-0.6-1-1c-0.3-0.3-0.6-0.7-0.7-1.1     c-0.2-0.4-0.2-0.7-0.1-0.9C62.6,48,62.7,47.9,62.7,47.9z"/>
      </g>
      <g fill="#ffd300">
        <path d="M68.2,46.7c0,0,0.3,0.3,0.5,0.8c0.3,0.5,0.5,1.2,0.6,1.9c0.1,0.7,0,1.4-0.1,2c-0.1,0.5-0.3,0.9-0.3,0.9s-0.2-0.3-0.4-0.8     c-0.2-0.5-0.4-1.2-0.4-1.9c-0.1-0.7-0.1-1.4,0-1.9C68.1,47.1,68.2,46.7,68.2,46.7z"/>
      </g>
      <g fill="#ffd300">
        <path d="M69.5,54.1c0,0,0,0.1,0.1,0.3c0,0.1,0.1,0.3,0.2,0.5c0.1,0.2,0.3,0.4,0.5,0.6c0.1,0.1,0.2,0.2,0.3,0.2     c0.1,0.1,0.2,0.2,0.3,0.2c0.2,0.1,0.2,0.1,0.4,0.2c0.1,0,0.3,0.1,0.4,0.2c0.3,0.1,0.5,0.2,0.8,0.3c0.5,0.2,0.8,0.4,0.8,0.4     s-0.3,0.2-0.9,0.3c-0.3,0.1-0.6,0.1-1,0c-0.2,0-0.4,0-0.6-0.1c-0.2-0.1-0.4-0.2-0.6-0.2c-0.2-0.1-0.4-0.3-0.5-0.4     c-0.2-0.1-0.3-0.3-0.4-0.5c-0.2-0.3-0.3-0.7-0.3-1.1c0-0.3,0.1-0.6,0.2-0.7C69.5,54.2,69.5,54.1,69.5,54.1z"/>
      </g>
      <g fill="#ffd300">
        <path d="M66,58.2c0,0,0.1,0.1,0.3,0.3c0.2,0.2,0.5,0.3,0.9,0.4c0.4,0.1,0.9,0.1,1.5,0.2c0.6,0.1,1.2,0.1,1.7,0.2     c1.2,0.2,2.4,0.4,3.3,0.7c0.9,0.2,1.5,0.5,1.5,0.5s-0.6,0.2-1.5,0.2c-0.9,0.1-2.2,0-3.4-0.2c-0.6-0.1-1.2-0.2-1.8-0.4     c-0.5-0.1-1.1-0.3-1.5-0.6c-0.4-0.3-0.7-0.6-0.8-0.9C66,58.4,66,58.2,66,58.2z"/>
      </g>
      <g fill="#ffd300">
        <path d="M66.9,63.5c0,0,0.3-0.2,0.7-0.3c0.2-0.1,0.4-0.2,0.6-0.3c0.2-0.1,0.5-0.2,0.7-0.3c0.2-0.1,0.5-0.2,0.7-0.3     c0.2-0.1,0.4-0.2,0.6-0.2c0.4-0.1,0.7-0.2,0.7-0.2s0,0.4-0.3,0.8c-0.1,0.2-0.3,0.4-0.5,0.6c-0.2,0.2-0.5,0.4-0.8,0.5     c-0.3,0.1-0.6,0.2-0.9,0.2c-0.3,0-0.6,0-0.8-0.1C67.1,63.7,66.9,63.5,66.9,63.5z"/>
      </g>
      <g fill="#ffd300">
        <path d="M61,53.1c0,0,0.4-0.2,1-0.4c0.6-0.2,1.5-0.3,2.3-0.3c0.4,0,0.8,0,1.2,0.1c0.4,0,0.9,0.1,1.2,0.4c0.4,0.2,0.5,0.6,0.5,0.8     c0,0.2,0,0.3,0,0.3c0,0-0.1-0.1-0.2-0.2c-0.1-0.1-0.4-0.2-0.6-0.2c-0.3,0-0.5,0-0.9,0.1c-0.4,0.1-0.8,0.1-1.2,0.1     c-0.8,0-1.7-0.1-2.3-0.2C61.5,53.3,61,53.1,61,53.1z"/>
      </g>
      <g fill="#ffd300">
        <path d="M60.7,56c0,0,0.5-0.2,1.2-0.4c0.7-0.2,1.7-0.3,2.6-0.3c0.9,0,1.9,0.1,2.6,0.3c0.7,0.1,1.2,0.4,1.2,0.4s-0.5,0.2-1.2,0.4     c-0.7,0.2-1.7,0.3-2.6,0.3c-0.9,0-1.9-0.1-2.6-0.3C61.2,56.2,60.7,56,60.7,56z"/>
      </g>
      <g fill="#ffd300">
        <path d="M52.9,57.4c0,0,0.1,0,0.3,0c0.2,0,0.4,0,0.7,0c0.3,0,0.6,0,0.9,0c0.3,0,0.7,0,1,0c0.4,0,0.7,0,1,0c0.3,0,0.6,0,0.9,0     c0.6,0,1,0,1,0s-0.3,0.4-0.8,0.7c-0.3,0.2-0.6,0.3-1,0.4c-0.2,0-0.4,0.1-0.6,0.1c-0.2,0-0.4,0-0.6,0.1c-0.4,0-0.8-0.1-1.2-0.2     c-0.4-0.1-0.7-0.2-1-0.4C53.2,57.8,52.9,57.4,52.9,57.4z"/>
      </g>
      <g fill="#ffd300">
        <path d="M59.2,53.6c0,0-0.1,0.5-0.3,1.2c-0.3,0.7-0.7,1.6-1.5,2.3c-0.4,0.3-0.8,0.7-1.3,0.9c-0.5,0.2-0.9,0.3-1.3,0.3     c-0.4,0-0.7,0-1-0.1c-0.2-0.1-0.3-0.1-0.3-0.1s0.5-0.1,1.1-0.5c0.3-0.2,0.6-0.4,1-0.6c0.3-0.3,0.7-0.5,1-0.8     c0.6-0.6,1.3-1.3,1.8-1.8C58.8,53.9,59.2,53.6,59.2,53.6z"/>
      </g>
      <g fill="#ffd300">
        <path d="M51.5,58.5c0,0,0.1,0.1,0.2,0.3c0.1,0.2,0.3,0.5,0.2,0.9c0,0.2-0.1,0.5-0.3,0.7c-0.2,0.2-0.4,0.3-0.6,0.4     c-0.4,0.2-0.8,0.4-1.2,0.6c-0.8,0.4-1.7,0.7-2.4,0.8c-0.7,0.1-1.2,0.1-1.2,0.1s0.3-0.4,0.9-0.8c0.6-0.4,1.3-0.9,2.2-1.3     c0.4-0.2,0.8-0.4,1.2-0.5c0.4-0.2,0.5-0.1,0.7-0.4c0.1-0.2,0.2-0.5,0.2-0.7C51.5,58.6,51.5,58.5,51.5,58.5z"/>
      </g>
      <g fill="#ffd300">
        <path d="M50.3,63.3c0,0-0.1,0.1-0.3,0.2c-0.2,0.1-0.5,0.3-0.8,0.5c-0.3,0.2-0.7,0.4-1.1,0.6c-0.4,0.2-0.8,0.5-1.2,0.7     c-0.4,0.3-0.8,0.5-1.2,0.8c-0.4,0.3-0.7,0.5-1,0.7c-0.6,0.4-1.1,0.7-1.1,0.7s0.1-0.5,0.6-1.2c0.2-0.3,0.5-0.7,0.9-1.1     c0.2-0.2,0.4-0.4,0.6-0.5c0.2-0.2,0.4-0.3,0.6-0.5c0.5-0.3,0.9-0.5,1.4-0.7c0.5-0.2,0.9-0.3,1.3-0.3     C49.7,63.2,50.3,63.3,50.3,63.3z"/>
      </g>
      <g fill="#ffd300">
        <path d="M42,66.2c0,0,0.1,0.1,0.2,0.3c0.1,0.2,0.2,0.4,0.4,0.6c0.2,0.2,0.4,0.4,0.7,0.6c0.1,0.1,0.3,0.2,0.4,0.3     c0.1,0.1,0.3,0.2,0.5,0.2c0.2,0.1,0.3,0.2,0.5,0.2c0.2,0.1,0.3,0.1,0.5,0.2c0.3,0.1,0.7,0.3,1,0.4c0.6,0.2,1,0.5,1,0.5     s-0.4,0.2-1.1,0.2c-0.3,0-0.7,0-1.1,0c-0.2,0-0.4-0.1-0.6-0.1c-0.2-0.1-0.5-0.2-0.6-0.2c-0.2-0.1-0.4-0.2-0.6-0.4     c-0.2-0.1-0.4-0.3-0.5-0.5c-0.3-0.3-0.5-0.7-0.6-1.1c-0.1-0.4-0.1-0.7,0-0.9C42,66.3,42,66.2,42,66.2z"/>
      </g>
      <g fill="#ffd300">
        <path d="M47.5,67.2c0,0,0,0.1,0.1,0.2c0.1,0.1,0.4,0.1,0.6,0.1c0.1,0,0.3,0,0.5,0c0.2,0,0.3,0,0.5,0c0.4,0,0.8,0,1.2,0     c0.8,0,1.6,0,2.2,0c0.6,0,1.1,0.1,1.1,0.1s-0.3,0.3-0.9,0.6c-0.6,0.3-1.4,0.5-2.3,0.5c-0.4,0-0.9,0-1.3-0.1     c-0.2,0-0.4-0.1-0.6-0.1c-0.2-0.1-0.3-0.1-0.5-0.2c-0.4-0.1-0.6-0.4-0.7-0.6C47.3,67.3,47.5,67.2,47.5,67.2z"/>
      </g>
      <g fill="#ffd300">
        <path d="M50.4,70.3c0,0,0.3-0.4,0.7-0.7c0.5-0.4,1.1-0.8,1.8-1.2c0.7-0.3,1.5-0.6,2.1-0.7c0.6-0.1,1-0.1,1-0.1s-0.3,0.4-0.7,0.7     c-0.5,0.4-1.1,0.8-1.8,1.2c-0.7,0.3-1.5,0.6-2.1,0.7C50.9,70.3,50.4,70.3,50.4,70.3z"/>
      </g>
      <g fill="#ffd300">
        <path d="M57.4,65.7c0,0,0.1,0.1,0.3,0.2c0.2,0.1,0.4,0.3,0.7,0.4c0.3,0.2,0.6,0.4,0.9,0.6c0.3,0.2,0.7,0.4,1.1,0.7     c0.7,0.5,1.4,1.1,1.8,1.7c0.2,0.3,0.3,0.6,0.4,0.8c0.1,0.2,0.1,0.3,0.1,0.3s-0.1-0.1-0.3-0.2c-0.2-0.1-0.4-0.3-0.7-0.4     c-0.3-0.2-0.6-0.3-0.9-0.5c-0.3-0.2-0.7-0.4-1.1-0.7c-0.4-0.3-0.7-0.5-1-0.8c-0.3-0.3-0.6-0.6-0.8-0.9c-0.2-0.3-0.3-0.6-0.4-0.8     C57.5,65.8,57.4,65.7,57.4,65.7z"/>
      </g>
      <g fill="#ffd300">
        <path d="M62.2,67.1c0,0,0.4-0.1,0.8-0.1c0.2,0,0.5,0,0.8,0c0.3,0,0.5,0.1,0.8,0.1c0.5,0.1,1.1,0.2,1.5,0.4     c0.2,0.1,0.3,0.1,0.4,0.1c0.1,0,0.2-0.1,0.2-0.1c0,0,0,0.1,0,0.3c-0.1,0.2-0.3,0.3-0.6,0.4c-0.5,0.2-1.1,0.2-1.7,0.1     c-0.6-0.1-1.2-0.4-1.6-0.7C62.4,67.4,62.2,67.1,62.2,67.1z"/>
      </g>
      <g fill="#ffd300">
        <path d="M62.5,64.6c0,0,0.4-0.2,1-0.4c0.6-0.2,1.3-0.3,2.1-0.3c0.4,0,0.8,0,1.1,0.1c0.2,0,0.3,0,0.5,0.1c0.1,0,0.3,0,0.4,0     c0.2,0,0.4,0,0.6-0.1c0.1-0.1,0.2-0.2,0.2-0.2c0,0,0,0.1,0,0.3c0,0.2-0.2,0.5-0.6,0.6c-0.1,0.1-0.3,0.2-0.5,0.2     c-0.2,0.1-0.4,0.1-0.6,0.1c-0.4,0.1-0.7,0.1-1.1,0.1c-0.8,0-1.5-0.1-2.1-0.3C62.9,64.8,62.5,64.6,62.5,64.6z"/>
      </g>
      <g fill="#ffd300">
        <path d="M59.3,60.9c0,0,0.5-0.1,1.2-0.2c0.3,0,0.7-0.1,1.1-0.1c0.4-0.1,0.8-0.1,1.3-0.1c0.4,0,0.9-0.1,1.3-0.1     c0.4,0,0.8,0,1.1-0.1c0.7,0,1.2,0,1.2,0s-0.4,0.4-1,0.7c-0.3,0.2-0.7,0.3-1.1,0.4c-0.4,0.1-0.9,0.2-1.4,0.3c-0.5,0-0.9,0-1.4,0     c-0.4-0.1-0.8-0.1-1.2-0.2C59.7,61.2,59.3,60.9,59.3,60.9z"/>
      </g>
      <g fill="#ffd300">
        <path d="M60.3,64c0,0,0.2-0.2,0.4-0.3c0.1-0.1,0.2-0.1,0.4-0.2c0.1-0.1,0.3-0.1,0.4-0.1c0.3,0,0.6,0,0.8,0.1     c0.2,0.1,0.5,0.2,0.5,0.2s-0.1,0.3-0.3,0.5c-0.2,0.2-0.5,0.4-0.9,0.5c-0.4,0-0.7-0.1-1-0.3C60.4,64.3,60.3,64,60.3,64z"/>
      </g>
      <g fill="#ffd300">
        <path d="M51.7,66.2c0,0,0.2-0.2,0.6-0.3c0.2-0.1,0.3-0.1,0.5-0.2c0.2,0,0.4-0.1,0.6-0.1c0.4,0,0.8,0.1,1.1,0.2     c0.3,0.1,0.6,0.3,0.6,0.3s-0.2,0.3-0.5,0.4c-0.3,0.2-0.7,0.4-1.2,0.4c-0.5,0-0.9-0.1-1.2-0.3C51.9,66.4,51.7,66.2,51.7,66.2z"/>
      </g>
      <g fill="#ffd300">
        <path d="M50.6,61.8c0,0-0.1,0.1-0.1,0.3c0,0.1,0.1,0.2,0.2,0.2c0.1,0,0.2,0.1,0.3,0.1c0.3,0,0.8,0.1,1.2,0.1     c0.4,0.1,0.9,0.1,1.4,0.2c0.9,0.2,1.8,0.3,2.5,0.5c0.7,0.2,1.2,0.3,1.2,0.3s-0.5,0.2-1.2,0.4c-0.7,0.1-1.7,0.2-2.7,0     c-0.5-0.1-1-0.2-1.4-0.4c-0.2-0.1-0.4-0.2-0.6-0.2c-0.2-0.1-0.4-0.2-0.6-0.3c-0.2-0.1-0.4-0.3-0.5-0.5c-0.1-0.2-0.1-0.4,0-0.5     C50.5,61.8,50.7,61.8,50.6,61.8z"/>
      </g>
      <g fill="#ffd300">
        <path d="M57.1,58.6c0,0,0.3,0.2,0.7,0.7c0.3,0.5,0.7,1.2,0.8,1.9c0.1,0.4,0.1,0.7,0.1,1.1c0,0.3-0.1,0.8-0.3,1.1     c-0.1,0.1-0.3,0.3-0.4,0.3c-0.1,0.1-0.3,0.1-0.4,0.1c-0.2,0-0.3-0.1-0.3-0.1c0,0,0.1,0,0.2-0.1c0-0.1,0.1-0.1,0.1-0.2     c0-0.1,0-0.1,0-0.3c0-0.2-0.1-0.4-0.2-0.7c-0.1-0.3-0.1-0.6-0.2-1c-0.1-0.7-0.2-1.3-0.2-1.9C57.1,59,57.1,58.6,57.1,58.6z"/>
      </g>
      <g fill="#ffd300">
        <path d="M51.2,64.2c0,0,0.1,0.3,0,0.7c0,0.2-0.1,0.4-0.3,0.7c-0.1,0.2-0.3,0.4-0.5,0.7C50,66.7,49.5,67,49.1,67     c-0.4,0.1-0.7,0-0.7,0s0.1-0.3,0.4-0.6c0.2-0.3,0.5-0.7,0.8-1c0.2-0.2,0.3-0.3,0.5-0.5c0.2-0.1,0.3-0.3,0.5-0.4     C50.9,64.4,51.2,64.2,51.2,64.2z"/>
      </g>
      <g fill="#ffd300">
        <path d="M59.7,57.8c0,0,0-0.2,0.1-0.5c0.1-0.2,0.4-0.5,0.6-0.5c0.3-0.1,0.6-0.1,0.8,0.1c0.2,0.1,0.4,0.3,0.4,0.3     s-0.1,0.2-0.3,0.4c-0.2,0.2-0.4,0.3-0.6,0.4c-0.2,0.1-0.5,0.1-0.7,0C59.9,57.9,59.7,57.8,59.7,57.8z"/>
      </g>
      <g fill="#ffd300">
        <path d="M63.8,63.3c0,0,0.3-0.1,0.6-0.3c0.2-0.1,0.3-0.1,0.5-0.1c0.2,0,0.4-0.1,0.6-0.1c0.4,0,0.8,0,1.2,0c0.3,0,0.6,0.1,0.6,0.1     s-0.1,0.3-0.4,0.5c-0.3,0.3-0.8,0.5-1.3,0.5c-0.2,0-0.5,0-0.7-0.1c-0.2-0.1-0.4-0.1-0.6-0.2C64,63.5,63.8,63.3,63.8,63.3z"/>
      </g>
      <g fill="#ffd300">
        <path d="M69.6,65.1c0,0,0.1,0,0.2,0.1c0.1,0.1,0.2,0.1,0.4,0.2c0.1,0.1,0.3,0.1,0.4,0.2c0.1,0.1,0.3,0.1,0.4,0.2     c0.1,0.1,0.2,0.1,0.4,0.2c0.1,0.1,0.2,0.2,0.4,0.3c0.3,0.2,0.5,0.3,0.5,0.3s-0.1,0.3-0.5,0.4C71.4,67,71.2,67,71,67     c-0.2,0-0.5-0.1-0.7-0.2c-0.2-0.1-0.4-0.3-0.5-0.5c-0.1-0.2-0.2-0.4-0.2-0.6c0-0.2,0-0.4,0-0.5C69.6,65.1,69.6,65.1,69.6,65.1z"/>
      </g>
      <g fill="#ffd300">
        <path d="M73,62.9c0,0-0.2-0.1-0.4-0.3c-0.2-0.2-0.3-0.4-0.3-0.6c0-0.2,0.1-0.4,0.3-0.6c0.1-0.2,0.4-0.3,0.4-0.3s0.2,0.1,0.4,0.3     c0.2,0.2,0.3,0.4,0.3,0.6c0,0.2-0.1,0.4-0.3,0.6C73.2,62.8,73,62.9,73,62.9z"/>
      </g>
      <g fill="#ffd300">
        <path d="M74.6,57.5c0,0,0-0.4,0.2-0.9c0.1-0.3,0.2-0.5,0.3-0.8c0.1-0.3,0.3-0.6,0.4-0.9c0.3-0.6,0.7-1.1,1.1-1.5     c0.4-0.4,0.7-0.6,0.7-0.6s0.1,0.4,0,0.9c-0.1,0.5-0.3,1.2-0.7,1.8c-0.4,0.6-0.8,1.1-1.2,1.5C75,57.3,74.6,57.5,74.6,57.5z"/>
      </g>
      <g fill="#ffd300">
        <path d="M71.6,52.5c0,0-0.7,0.4-1.8,0.7c-1.1,0.4-2.5,0.7-4,1c-1.5,0.2-3,0.3-4.1,0.3c-1.1,0-1.9-0.1-1.9-0.1s0.7-0.3,1.8-0.6     c1.1-0.3,2.6-0.6,4-0.8c1.5-0.2,3-0.4,4.1-0.4C70.9,52.5,71.6,52.5,71.6,52.5z"/>
      </g>
      <g fill="#ffd300">
        <path d="M66.1,42.6c0,0,0.1,0.1,0.2,0.3c0.1,0.2,0.2,0.4,0.3,0.7c0.1,0.3,0.2,0.7,0.2,1.1c0,0.4-0.1,0.9-0.1,1.3     c-0.1,0.2-0.1,0.4-0.2,0.6c-0.1,0.2-0.2,0.4-0.3,0.6c-0.2,0.4-0.5,0.7-0.7,0.9c-0.5,0.5-0.9,0.6-0.9,0.6s0-0.1,0.1-0.3     c0.1-0.2,0.1-0.4,0.2-0.7c0.1-0.3,0.2-0.6,0.3-1c0.1-0.3,0.2-0.7,0.3-1.1c0.1-0.4,0.2-0.7,0.3-1.1c0.1-0.4,0.1-0.7,0.2-1     c0.1-0.3,0.1-0.6,0.1-0.7C66.1,42.7,66.1,42.6,66.1,42.6z"/>
      </g>
      <g fill="#ffd300">
        <path d="M55.6,48c0,0,0,0.1,0.1,0.3c0.1,0.2,0.1,0.4,0.3,0.6c0.1,0.2,0.2,0.5,0.4,0.8c0.1,0.3,0.3,0.6,0.5,0.9     c0.2,0.3,0.3,0.6,0.5,0.9c0.2,0.3,0.3,0.6,0.4,0.8c0.2,0.5,0.3,0.9,0.3,0.9s-0.4-0.1-0.9-0.5c-0.5-0.3-1-0.9-1.4-1.6     c-0.2-0.4-0.3-0.7-0.4-1.1c-0.1-0.4-0.1-0.7-0.1-1.1c0-0.3,0.1-0.6,0.2-0.7C55.5,48.1,55.6,48,55.6,48z"/>
      </g>
      <g fill="#ffd300">
        <path d="M51.6,43.1c0,0,0,0.5-0.2,1.3c-0.2,0.7-0.5,1.7-0.9,2.6c-0.2,0.4-0.4,0.9-0.7,1.3c-0.2,0.4-0.5,0.8-0.9,1.1     c-0.2,0.1-0.4,0.2-0.6,0.2c-0.2,0-0.3,0-0.5,0c-0.2-0.1-0.3-0.2-0.3-0.2c0,0,0.1,0,0.3-0.1c0.2-0.1,0.4-0.2,0.6-0.5     c0.1-0.2,0.3-0.6,0.4-1c0.1-0.4,0.4-0.9,0.5-1.3c0.4-0.9,0.9-1.7,1.4-2.3C51.2,43.5,51.6,43.1,51.6,43.1z"/>
      </g>
      <g fill="#ffd300">
        <path d="M51,36.2c0,0-0.2,0.6-0.7,1.3c-0.3,0.4-0.6,0.8-1,1.2c-0.2,0.2-0.4,0.4-0.7,0.6c-0.2,0.2-0.5,0.3-0.8,0.5     c-0.6,0.3-1.1,0.5-1.7,0.7c-0.6,0.1-1.1,0.2-1.6,0.2c-0.5,0-0.8-0.1-1.1-0.2c-0.3-0.1-0.4-0.1-0.4-0.1s0.6-0.1,1.4-0.4     c0.8-0.3,1.8-0.7,2.7-1.2c1-0.5,1.9-1.1,2.6-1.6C50.5,36.5,51,36.2,51,36.2z"/>
      </g>
      <g fill="#ffd300">
        <path d="M50.9,33.2c0,0,0,0.2-0.1,0.5c0,0.1-0.1,0.3-0.3,0.5c-0.1,0.1-0.2,0.2-0.3,0.2c-0.1,0-0.2,0-0.3,0     c-0.1,0-0.2-0.1-0.3-0.1c-0.2-0.1-0.5-0.2-0.7-0.2c-0.2-0.1-0.4-0.1-0.7-0.1c-0.5,0-1,0.1-1.5,0.3c-0.3,0.1-0.5,0.2-0.8,0.3     c-0.2,0.1-0.5,0.2-0.7,0.4c-0.5,0.3-1,0.5-1.4,0.7c-0.8,0.4-1.4,0.6-1.4,0.6s0.4-0.5,1-1.2c0.7-0.7,1.6-1.5,2.9-2     c0.3-0.1,0.7-0.2,1-0.3c0.3-0.1,0.7,0,1,0c0.3,0.1,0.6,0.2,0.9,0.3c0.3,0.1,0.5,0.3,0.6,0.5c0.1,0,0.1,0.1,0,0.1c0,0,0,0,0,0     c0,0,0.1,0,0.2,0c0.1-0.1,0.3-0.2,0.4-0.2C50.8,33.4,50.9,33.2,50.9,33.2z"/>
      </g>
      <g fill="#ffd300">
        <path d="M55.5,32.5c0,0,0.2,0.4,0.1,1c0,0.3-0.1,0.6-0.2,1c-0.1,0.4-0.3,0.7-0.5,1c-0.1,0.2-0.2,0.3-0.4,0.5     c-0.1,0.2-0.3,0.3-0.4,0.4c-0.3,0.2-0.6,0.4-0.9,0.5c-0.5,0.2-1,0.2-1,0.2s0.2-0.4,0.5-0.8c0.2-0.2,0.3-0.5,0.5-0.7     c0.2-0.3,0.4-0.5,0.5-0.8c0.2-0.3,0.4-0.6,0.5-0.8c0.2-0.3,0.3-0.5,0.5-0.7c0.2-0.2,0.3-0.4,0.4-0.6     C55.4,32.6,55.5,32.5,55.5,32.5z"/>
      </g>
      <g fill="#ffd300">
        <path d="M20.9,53.7c0,0,0-0.2,0.2-0.4c0.2-0.3,0.7-0.5,1.2-0.6c0.5-0.1,1.1-0.2,1.7-0.2c0.6-0.1,1.3-0.1,2-0.1     c1.3,0,2.7,0.1,3.7,0.2c1,0.1,1.7,0.3,1.7,0.3s-0.7,0.2-1.7,0.4c-1,0.2-2.4,0.3-3.7,0.3c-0.7,0-1.3,0-2-0.1     c-0.6,0-1.2-0.1-1.7-0.2c-0.5-0.1-0.9-0.1-1.1,0C21,53.5,20.9,53.7,20.9,53.7z"/>
      </g>
      <g fill="#ffd300">
        <path d="M24.8,60c0,0,0.1,0,0.3,0.1c0.2,0,0.5,0.1,0.8,0.2c0.3,0.1,0.7,0.1,1.1,0.2c0.4,0,0.8,0.1,1.2,0.1c0.4,0,0.8,0,1.2,0     c0.4,0,0.8-0.1,1.1-0.1c0.3,0,0.6-0.1,0.8-0.1c0.2,0,0.3,0,0.3,0s-0.1,0.1-0.2,0.3c-0.1,0.2-0.4,0.4-0.7,0.6     c-0.3,0.2-0.7,0.4-1.2,0.5c-0.2,0-0.5,0.1-0.7,0.1c-0.2,0-0.5,0-0.8,0c-0.3,0-0.5,0-0.7-0.1c-0.2,0-0.5-0.1-0.7-0.2     c-0.4-0.2-0.8-0.3-1.1-0.6c-0.3-0.2-0.5-0.4-0.7-0.6C24.9,60.1,24.8,60,24.8,60z"/>
      </g>
      <g fill="#ffd300">
        <path d="M85.6,59c0,0-0.6,0.5-1.7,1.1c-0.5,0.3-1.2,0.5-1.9,0.7c-0.7,0.2-1.5,0.4-2.3,0.5c-1.6,0.2-3.1,0.2-4.2,0.3     c-1.1,0.1-1.9,0.2-1.9,0.2s0.6-0.5,1.8-0.9c0.6-0.2,1.2-0.4,1.9-0.5c0.7-0.1,1.5-0.2,2.2-0.3c0.7-0.1,1.5-0.2,2.2-0.3     c0.7-0.1,1.3-0.2,1.9-0.4C84.9,59.1,85.6,59,85.6,59z"/>
      </g>
      <g fill="#ffd300">
        <path d="M83.8,64.4c0,0-0.7,0.6-1.8,1.2c-0.6,0.3-1.3,0.7-2,1c-0.8,0.3-1.6,0.6-2.4,0.8c-0.4,0.1-0.9,0.2-1.3,0.3     c-0.4,0.1-0.8,0.1-1.2,0.2c-0.8,0.1-1.6,0.1-2.2,0.1c-1.3,0-2.2-0.3-2.2-0.3s0.2-0.1,0.6-0.1c0.4-0.1,0.9-0.2,1.5-0.3     c0.6-0.1,1.3-0.3,2.1-0.4c0.8-0.2,1.6-0.4,2.4-0.6c0.8-0.2,1.6-0.4,2.4-0.6c0.8-0.2,1.5-0.4,2.1-0.6c0.6-0.2,1.1-0.3,1.5-0.4     C83.6,64.4,83.8,64.4,83.8,64.4z"/>
      </g>
      <g fill="#ffd300">
        <path d="M50.6,59.4c0,0,0.8,0,1.9,0.1c0.6,0.1,1.2,0.2,1.9,0.4c0.7,0.2,1.4,0.5,2.1,0.8c0.3,0.2,0.7,0.3,1,0.5     c0.3,0.2,0.6,0.4,0.9,0.6c0.6,0.4,1.1,0.8,1.6,1.2c0.9,0.7,1.3,1.4,1.3,1.4s-0.7-0.3-1.7-0.8c-0.5-0.2-1.1-0.5-1.7-0.8     c-0.6-0.3-1.3-0.6-1.9-0.9c-0.7-0.3-1.3-0.6-1.9-0.9c-0.6-0.3-1.2-0.6-1.7-0.8C51.2,59.8,50.6,59.4,50.6,59.4z"/>
      </g>
      <g fill="#ffd300">
        <path d="M54.6,56c0,0,0.5-0.5,1.3-1.1c0.4-0.3,0.9-0.6,1.4-1c0.3-0.2,0.5-0.4,0.7-0.6c0.2-0.2,0.4-0.4,0.7-0.6     c0.4-0.4,0.8-0.9,1.2-1.4c0.3-0.5,0.6-1,0.9-1.4c0.2-0.4,0.4-0.8,0.5-1.1c0.1-0.3,0.2-0.4,0.2-0.4s0,0.2,0,0.5     c0,0.3,0,0.7-0.1,1.3c-0.2,1-0.8,2.4-1.8,3.4c-0.3,0.2-0.5,0.5-0.8,0.7c-0.3,0.2-0.6,0.4-0.9,0.5c-0.6,0.3-1.1,0.5-1.6,0.7     C55.3,55.8,54.6,56,54.6,56z"/>
      </g>
      <g fill="#ffd300">
        <path d="M46.8,59.3c0,0,0.2,0,0.4-0.1c0.3,0,0.6-0.1,1.1-0.2c0.4-0.1,0.9-0.2,1.3-0.4c0.2-0.1,0.4-0.2,0.6-0.4     c0.2-0.1,0.3-0.3,0.4-0.5c0.3-0.4,0.4-0.9,0.6-1.4c0.2-0.5,0.4-1,0.6-1.4c0.4-0.8,0.8-1.3,0.8-1.3s0,0.6-0.1,1.5     c0,0.4-0.1,1-0.2,1.5c-0.1,0.5-0.3,1.2-0.6,1.8c-0.4,0.6-1.1,1.1-1.7,1.2c-0.6,0.2-1.2,0.2-1.7,0.1     C47.3,59.6,46.8,59.3,46.8,59.3z"/>
      </g>
      <g fill="#ffd300">
        <path d="M41.9,48.5c0,0,0.7,0.3,1.6,1c0.9,0.6,2,1.5,3.1,2.5c0.5,0.5,1.1,1.1,1.4,1.8c0.2,0.3,0.3,0.7,0.4,1c0.1,0.4,0.1,0.7,0,1     c-0.1,0.6-0.3,1.1-0.6,1.3c-0.2,0.3-0.4,0.3-0.4,0.3s0.1-0.2,0.2-0.5c0.1-0.3,0.1-0.7,0.1-1.2c0-0.2-0.1-0.5-0.2-0.7     c-0.1-0.2-0.3-0.5-0.4-0.7c-0.4-0.5-0.8-1-1.4-1.5c-0.5-0.5-1.1-1-1.5-1.5c-0.5-0.5-0.9-1-1.2-1.4C42.3,49.1,41.9,48.5,41.9,48.5     z"/>
      </g>
      <g fill="#ffd300">
        <path d="M41.5,55.3c0,0,0.1-0.3,0.2-0.7c0.1-0.2,0.2-0.4,0.3-0.6c0.1-0.2,0.2-0.4,0.4-0.6c0.1-0.2,0.3-0.4,0.4-0.6     c0.1-0.2,0.3-0.4,0.4-0.5c0.3-0.3,0.5-0.5,0.5-0.5s0.2,0.3,0.2,0.8c0,0.5-0.1,1.1-0.4,1.6c-0.2,0.2-0.3,0.5-0.6,0.7     c-0.2,0.2-0.4,0.3-0.6,0.4C41.8,55.3,41.5,55.3,41.5,55.3z"/>
      </g>
      <g fill="#ffd300">
        <path d="M37.3,62.5c0,0,0.4-0.1,0.9-0.2c0.3,0,0.6-0.1,0.9-0.1c0.3,0,0.7-0.1,1-0.1c0.3,0,0.7-0.1,1-0.1c0.3,0,0.6,0,0.9,0     c0.5,0,1,0,1,0s-0.3,0.3-0.8,0.6c-0.2,0.2-0.6,0.3-0.9,0.4c-0.3,0.1-0.7,0.2-1.1,0.2c-0.4,0-0.8,0-1.1,0c-0.4-0.1-0.7-0.1-1-0.3     C37.6,62.8,37.3,62.5,37.3,62.5z"/>
      </g>
      <g fill="#ffd300">
        <path d="M35.8,63.9c0,0,0,0.1,0.1,0.2c0.1,0.1,0.2,0.2,0.2,0.3c0.1,0.1,0.2,0.3,0.3,0.4c0.1,0.1,0.2,0.3,0.3,0.4     c0.1,0.2,0.2,0.3,0.2,0.5c0.1,0.1,0.1,0.3,0.2,0.5c0.1,0.3,0.2,0.6,0.2,0.6s-0.3,0.1-0.7,0c-0.2,0-0.4-0.2-0.6-0.3     c-0.2-0.1-0.3-0.4-0.5-0.6c-0.1-0.2-0.2-0.5-0.2-0.7c0-0.2,0-0.5,0.1-0.7C35.6,64.1,35.8,63.9,35.8,63.9z"/>
      </g>
      <g fill="#ffd300">
        <path d="M30.8,64.4c0,0-0.6,0.3-1.1,1c-0.2,0.4-0.5,0.8-0.6,1.3c-0.1,0.2-0.2,0.5-0.2,0.8c-0.1,0.3-0.2,0.6-0.2,0.9     c-0.2,0.6-0.4,1.3-0.8,1.8c-0.4,0.6-0.8,1-1.3,1.3c-0.5,0.3-0.9,0.3-1.2,0.3c-0.3,0-0.5-0.1-0.5-0.1s0.7-0.2,1.2-0.8     c0.3-0.3,0.6-0.7,0.7-1.2c0.2-0.5,0.4-1,0.5-1.6c0.1-0.3,0.2-0.6,0.3-0.9c0.1-0.3,0.2-0.6,0.4-0.9c0.3-0.6,0.7-1.1,1.1-1.4     c0.4-0.3,0.9-0.5,1.1-0.5C30.6,64.4,30.8,64.4,30.8,64.4z"/>
      </g>
      <g fill="#ffd300">
        <path d="M26.2,58.5c0,0-0.5,0.6-1.4,1.4c-0.4,0.4-1,0.9-1.5,1.3c-0.3,0.2-0.6,0.5-1,0.7c-0.4,0.2-0.8,0.4-1.3,0.5     c-0.4,0.1-0.9,0.1-1.3,0.1c-0.2,0-0.4,0-0.6,0c-0.2,0-0.4,0-0.6-0.1c-0.4,0-0.7-0.1-1.1-0.2c-0.3-0.1-0.6-0.1-1-0.2     c-0.6-0.2-1-0.2-1.2,0C15,62.2,15,62.5,15,62.5c0,0-0.1-0.2,0.2-0.6c0.1-0.2,0.3-0.3,0.6-0.4c0.3-0.1,0.6-0.1,0.9-0.1     c0.3,0,0.6,0,0.9,0c0.3,0,0.7,0,1.1,0c0.2,0,0.4,0,0.6,0c0.2,0,0.3,0,0.5,0c0.4,0,0.7,0,1-0.1c0.6-0.1,1.2-0.5,1.9-0.9     c0.6-0.4,1.2-0.7,1.8-1C25.4,58.8,26.2,58.5,26.2,58.5z"/>
      </g>
      <g fill="#ffd300">
        <path d="M10.9,63.8c0,0,0,0.3-0.1,0.7c-0.1,0.2-0.1,0.4-0.2,0.6c-0.1,0.2-0.2,0.4-0.3,0.7c-0.2,0.4-0.5,0.8-0.8,1.1     c-0.3,0.3-0.6,0.5-0.6,0.5s-0.1-0.3-0.1-0.7c0-0.4,0.1-1,0.4-1.5c0.3-0.5,0.7-0.9,1.1-1.1C10.6,63.9,10.9,63.8,10.9,63.8z"/>
      </g>
      <g fill="#ffd300">
        <path d="M10.4,60.5c0,0,0,0.4-0.2,0.9c-0.1,0.2-0.2,0.5-0.4,0.8c-0.2,0.3-0.4,0.5-0.6,0.8c-0.5,0.5-1.1,0.8-1.6,1     c-0.5,0.2-0.9,0.1-0.9,0.1s0.2-0.3,0.5-0.7c0.3-0.4,0.7-0.8,1.1-1.3c0.2-0.2,0.4-0.4,0.7-0.6c0.2-0.2,0.4-0.4,0.6-0.5     C10.1,60.7,10.4,60.5,10.4,60.5z"/>
      </g>
      <g fill="#ffd300">
        <path d="M9.4,66.5c0,0-0.3,0.2-0.6,0.3C8.6,66.9,8.4,67,8.1,67c-0.2,0.1-0.5,0.1-0.7,0.1c-0.5,0-0.9,0-1.3,0     c-0.4-0.1-0.7-0.2-0.7-0.2s0.2-0.3,0.5-0.5c0.3-0.2,0.8-0.5,1.4-0.5c0.5-0.1,1.1,0,1.4,0.2C9.2,66.3,9.4,66.5,9.4,66.5z"/>
      </g>
      <g fill="#ffd300">
        <path d="M8.7,70c0,0-0.1,0.4-0.5,0.9c-0.2,0.2-0.4,0.5-0.7,0.7c-0.3,0.2-0.6,0.4-1,0.6c-0.2,0.1-0.4,0.1-0.6,0.2     c-0.2,0.1-0.4,0.1-0.6,0.1c-0.4,0-0.7,0-1,0c-0.6-0.1-1-0.3-1-0.3s0.4-0.2,0.9-0.4c0.3-0.1,0.5-0.2,0.8-0.3     C5.4,71.2,5.7,71.1,6,71c0.3-0.1,0.6-0.2,0.9-0.4c0.3-0.1,0.6-0.2,0.8-0.3C8.3,70.1,8.7,70,8.7,70z"/>
      </g>
      <g fill="#ffd300">
        <path d="M11.2,72.8c0,0,0.3,0.3,0.1,0.9c0,0.3-0.2,0.6-0.4,0.8c-0.1,0.1-0.2,0.3-0.4,0.4C10.4,75,10.2,75,10,75.1     c-0.1,0-0.3,0.1-0.5,0.1c-0.2,0-0.3,0-0.5,0c-0.3,0-0.6,0-0.8-0.1c-0.5-0.1-0.8-0.4-0.8-0.4s0.3-0.2,0.7-0.4     c0.2-0.1,0.4-0.2,0.7-0.3c0.1,0,0.2-0.1,0.4-0.1c0.1,0,0.2-0.1,0.3-0.1c0.1,0,0.2-0.1,0.3-0.1c0.1-0.1,0.2-0.1,0.3-0.2     c0.2-0.1,0.4-0.2,0.5-0.4C11,73.1,11.2,72.8,11.2,72.8z"/>
      </g>
      <g fill="#ffd300">
        <path d="M19.5,73.6c0,0,0.6-0.1,1.5-0.2c0.5,0,1,0,1.5,0c0.6,0,1.2,0,1.8,0.1c1.2,0.1,2.4,0.3,3.3,0.4c0.9,0.2,1.5,0.4,1.5,0.4     s-0.6,0.2-1.5,0.3c-0.9,0.1-2.1,0.2-3.3,0.1c-1.2-0.1-2.4-0.3-3.3-0.6C20,73.9,19.5,73.6,19.5,73.6z"/>
      </g>
      <g fill="#ffd300">
        <path d="M42.7,73.5c0,0,0.4-0.2,1.2-0.3c0.3-0.1,0.8-0.1,1.2-0.1c0.4,0,0.9,0,1.4,0.1c0.9,0.1,1.8,0.4,2.4,0.8     c0.6,0.3,1,0.7,1,0.7s-0.5,0.1-1.2,0c-0.7,0-1.6-0.1-2.4-0.2c-0.4-0.1-0.9-0.1-1.3-0.2c-0.4-0.1-0.8-0.2-1.1-0.3     C43.1,73.7,42.7,73.5,42.7,73.5z"/>
      </g>
      <g fill="#ffd300">
        <path d="M40,68.4c0,0,0.4-0.2,1-0.4c0.6-0.2,1.4-0.3,2.2-0.3c0.8,0,1.6,0.1,2.2,0.3c0.6,0.1,1,0.4,1,0.4s-0.4,0.2-1,0.4     C44.8,68.9,44,69,43.2,69c-0.8,0-1.6-0.1-2.2-0.3C40.4,68.6,40,68.4,40,68.4z"/>
      </g>
      <g fill="#ffd300">
        <path d="M62.4,63.6c0,0-0.1,0.2-0.3,0.4c-0.2,0.3-0.5,0.6-1.1,0.9c-0.5,0.3-1.1,0.5-1.8,0.7c-0.7,0.2-1.4,0.3-2.1,0.4     c-0.7,0.1-1.4,0.1-2.1,0.1c-0.7,0-1.3,0-1.9-0.1c-1.1-0.1-1.8-0.3-1.8-0.3s0.7-0.2,1.8-0.4c1.1-0.2,2.5-0.4,3.9-0.6     c0.7-0.1,1.4-0.2,2.1-0.2c0.6-0.1,1.2-0.1,1.7-0.3c0.5-0.1,0.9-0.3,1.2-0.4C62.3,63.7,62.4,63.6,62.4,63.6z"/>
      </g>
      <g fill="#ffd300">
        <path d="M62.3,50.6c0,0,0.1,0.1,0.2,0.3c0.1,0.2,0.1,0.3,0.1,0.3c0,0.1-0.2,0.1-0.3,0.1c-0.2,0-0.4,0.1-0.4,0.1s-0.2-0.1-0.3-0.2     c-0.1-0.1-0.2-0.4-0.1-0.5c0.1-0.2,0.3-0.3,0.5-0.2C62.2,50.5,62.3,50.6,62.3,50.6z"/>
      </g>
      <g fill="#ffd300">
        <path d="M61.6,41.9c0,0,0,0.3-0.2,0.7c-0.2,0.4-0.4,0.8-0.8,1.1c-0.4,0.3-0.8,0.6-1.2,0.7c-0.4,0.1-0.7,0.1-0.7,0.1     s0.1-0.3,0.2-0.7c0.2-0.4,0.5-0.7,0.8-1.1c0.4-0.3,0.8-0.6,1.1-0.7C61.2,41.9,61.6,41.9,61.6,41.9z"/>
      </g>
      <g fill="#ffd300">
        <path d="M57.3,44.9c0,0,0.2,0.2,0.3,0.5c0.1,0.3,0.2,0.7,0.2,1c-0.1,0.4-0.2,0.7-0.4,0.9c-0.2,0.2-0.4,0.4-0.4,0.4     s-0.2-0.2-0.3-0.5c-0.1-0.3-0.1-0.6-0.1-1c0.1-0.3,0.2-0.7,0.4-0.9C57.1,45.1,57.3,44.9,57.3,44.9z"/>
      </g>
      <g fill="#ffd300">
        <path d="M33.9,45.2c0,0,0.3,0.1,0.5,0.2c0.1,0.1,0.3,0.1,0.4,0.2c0.1,0.1,0.3,0.2,0.4,0.3c0.2,0.2,0.4,0.5,0.6,0.8     c0.1,0.3,0.2,0.5,0.2,0.5s-0.3,0.1-0.6,0.1c-0.3,0-0.7-0.2-1.1-0.5c-0.3-0.3-0.5-0.7-0.5-1C33.8,45.5,33.9,45.2,33.9,45.2z"/>
      </g>
      <g fill="#ffd300">
        <path d="M35.6,42.6c0,0,0.3,0.1,0.6,0.2c0.2,0,0.3,0.1,0.5,0.2c0.2,0.1,0.4,0.1,0.5,0.2c0.2,0.1,0.3,0.2,0.5,0.3     c0.2,0.1,0.3,0.2,0.5,0.3c0.3,0.2,0.5,0.4,0.5,0.4s-0.2,0.2-0.6,0.3c-0.2,0.1-0.4,0.1-0.7,0c-0.2,0-0.5-0.1-0.7-0.2     c-0.2-0.1-0.4-0.3-0.6-0.4c-0.2-0.2-0.3-0.4-0.4-0.6C35.5,42.9,35.6,42.6,35.6,42.6z"/>
      </g>
      <g fill="#ffd300">
        <path d="M65.2,31.6c0,0-0.3,0.5-1,1.1c-0.2,0.2-0.4,0.3-0.6,0.5c-0.2,0.1-0.4,0.3-0.7,0.4c-0.5,0.3-1.1,0.4-1.7,0.6     c-1.1,0.3-2.2,0.4-3.1,0.5c-0.4,0.1-0.8,0.1-1,0.2c-0.2,0.1-0.4,0.1-0.4,0.1s0.1-0.1,0.3-0.3c0.2-0.2,0.5-0.4,0.9-0.6     c0.4-0.2,0.9-0.4,1.4-0.6c0.5-0.2,1.1-0.3,1.6-0.4c0.3-0.1,0.5-0.1,0.8-0.2c0.3-0.1,0.5-0.1,0.8-0.2c0.2-0.1,0.4-0.1,0.7-0.2     c0.2-0.1,0.4-0.2,0.6-0.2c0.4-0.2,0.7-0.3,1-0.4C65.1,31.6,65.2,31.6,65.2,31.6z"/>
      </g>
      <g fill="#ffd300">
        <path d="M74.4,36.2c0,0,0,0.5-0.1,1.2c-0.1,0.4-0.2,0.7-0.4,1.2c-0.2,0.4-0.4,0.8-0.7,1.2c-0.3,0.4-0.6,0.7-0.9,1     c-0.3,0.3-0.7,0.6-1,0.7c-0.6,0.4-1.1,0.5-1.1,0.5s0.2-0.5,0.6-1c0.2-0.3,0.4-0.6,0.6-1c0.2-0.3,0.5-0.7,0.7-1.1     c0.3-0.3,0.5-0.7,0.8-1c0.2-0.3,0.5-0.6,0.7-0.9C74,36.6,74.4,36.2,74.4,36.2z"/>
      </g>
      <g fill="#ffd300">
        <path d="M69.7,33.9c0,0-0.1,0.2-0.2,0.5c-0.2,0.3-0.4,0.7-0.8,1.2c-0.4,0.5-0.9,1-1.4,1.4c-0.6,0.5-1.3,0.9-2,1.3     c-0.7,0.3-1.4,0.7-2.1,0.9c-0.7,0.2-1.4,0.4-1.9,0.5c-1.1,0.2-1.9,0.2-1.9,0.2S60,39.5,61,39c0.5-0.3,1.1-0.5,1.8-0.8     c0.6-0.3,1.3-0.6,2-1c1.3-0.7,2.6-1.4,3.5-2.1c0.4-0.3,0.8-0.6,1.1-0.9C69.5,34,69.7,33.9,69.7,33.9z"/>
      </g>
      <g fill="#ffd300">
        <path d="M82.1,42.8c0,0,0,0.1,0.1,0.2c0,0.1,0.1,0.3,0,0.4c0,0.2-0.1,0.4-0.2,0.5c-0.1,0.2-0.3,0.3-0.5,0.5     c-0.2,0.1-0.4,0.2-0.6,0.2c-0.2,0-0.4,0-0.6-0.1c-0.3-0.1-0.5-0.3-0.5-0.3s0.2-0.1,0.4-0.4c0.1-0.1,0.2-0.2,0.3-0.3     c0.1-0.1,0.2-0.2,0.3-0.2c0.1-0.1,0.2-0.1,0.3-0.2c0.1-0.1,0.2-0.1,0.4-0.2c0.1-0.1,0.2-0.1,0.3-0.1C82,42.8,82.1,42.8,82.1,42.8     z"/>
      </g>
      <g fill="#ffd300">
        <path d="M16.2,53.2c0,0,0.4,0.3,0.8,0.7c0.2,0.2,0.4,0.5,0.7,0.7c0.2,0.3,0.5,0.6,0.7,0.8c0.2,0.3,0.5,0.6,0.7,0.9     c0.2,0.3,0.4,0.5,0.6,0.8c0.4,0.5,0.6,0.9,0.6,0.9s-0.4,0-1-0.3c-0.3-0.1-0.6-0.3-0.9-0.6c-0.3-0.2-0.6-0.5-0.9-0.8     c-0.3-0.3-0.5-0.7-0.7-1c-0.2-0.3-0.3-0.7-0.4-1C16.2,53.6,16.2,53.2,16.2,53.2z"/>
      </g>
      <g fill="#ffd300">
        <path d="M10.3,55.3c0,0,0.1,0.1,0.2,0.3c0.1,0.2,0.2,0.4,0.4,0.7c0.1,0.3,0.3,0.6,0.5,0.9c0.2,0.3,0.4,0.6,0.6,1     c0.2,0.3,0.4,0.6,0.6,0.9c0.2,0.3,0.4,0.6,0.6,0.8c0.2,0.2,0.4,0.4,0.5,0.6c0.1,0.1,0.2,0.2,0.2,0.2s-0.5,0-1.1-0.3     c-0.3-0.1-0.7-0.3-1-0.6c-0.2-0.1-0.3-0.3-0.5-0.5c-0.2-0.2-0.3-0.4-0.4-0.5c-0.2-0.4-0.5-0.8-0.6-1.2c-0.1-0.4-0.2-0.8-0.2-1.2     c0-0.3,0-0.6,0.1-0.8C10.3,55.4,10.3,55.3,10.3,55.3z"/>
      </g>
      <g fill="#ffd300">
        <path d="M12.5,51.3c0,0,0.4,0.2,0.9,0.6c0.2,0.2,0.5,0.4,0.8,0.7c0.3,0.2,0.6,0.5,0.9,0.8c0.6,0.6,1.1,1.2,1.5,1.6     c0.4,0.5,0.6,0.9,0.6,0.9s-0.5-0.1-1-0.3c-0.6-0.3-1.3-0.7-1.9-1.3c-0.6-0.6-1.1-1.3-1.3-1.9C12.5,51.8,12.5,51.3,12.5,51.3z"/>
      </g>
      <g fill="#ffd300">
        <path d="M71.2,45.5c0,0,0.1,0,0.3,0c0.2,0,0.5,0.1,0.8,0.2c0.3,0.1,0.6,0.4,0.9,0.6c0.3,0.2,0.5,0.5,0.8,0.7c0.5,0.5,1,1,1.4,1.4     c0.4,0.4,0.6,0.8,0.6,0.8s-0.4,0-1-0.1c-0.6-0.2-1.3-0.5-1.9-1.1c-0.3-0.3-0.6-0.6-0.8-0.9c-0.2-0.3-0.4-0.6-0.5-0.8     c-0.1-0.2-0.3-0.4-0.4-0.5C71.3,45.5,71.2,45.5,71.2,45.5z"/>
      </g>
      <g fill="#ffd300">
        <path d="M67.3,57.4c0,0,0.5-0.1,1.1,0c0.6,0.1,1.5,0.2,2.3,0.5c0.8,0.3,1.6,0.7,2.1,1c0.5,0.3,0.9,0.7,0.9,0.7s-0.5,0.1-1.1,0     c-0.6-0.1-1.5-0.2-2.3-0.5c-0.8-0.3-1.6-0.7-2.1-1C67.6,57.8,67.3,57.4,67.3,57.4z"/>
      </g>
      <g fill="#ffd300">
        <path d="M46.8,35.3c0,0,0.3,0.1,0.5,0.3c0.2,0.2,0.4,0.5,0.5,0.9c0.1,0.4,0,0.7-0.1,1c-0.1,0.3-0.3,0.5-0.3,0.5s-0.2-0.2-0.4-0.4     c-0.2-0.2-0.3-0.5-0.4-0.8c-0.1-0.3,0-0.6,0-0.9C46.6,35.5,46.8,35.3,46.8,35.3z"/>
      </g>
      <g fill="#ffd300">
        <path d="M59,59.7c0,0,0.4-0.3,1-0.5c0.6-0.2,1.4-0.4,2.3-0.4c0.8,0,1.7,0.1,2.3,0.3c0.6,0.2,1,0.4,1,0.4s-0.4,0.2-1,0.3     c-0.6,0.1-1.4,0.2-2.2,0.3c-0.4,0-0.8,0-1.2,0c-0.4,0-0.7,0-1.1-0.1C59.4,59.8,59,59.7,59,59.7z"/>
      </g>
      <g fill="#ffd300">
        <path d="M69.6,53.7c0,0,0.3-0.1,0.6-0.1c0.4,0,0.8,0.1,1.2,0.4c0.4,0.3,0.7,0.6,0.8,0.9c0.1,0.3,0.1,0.6,0.1,0.6s-0.3,0-0.6-0.1     c-0.3-0.1-0.7-0.2-1-0.4c-0.2-0.1-0.3-0.2-0.4-0.4c-0.1-0.1-0.3-0.3-0.4-0.4C69.8,54,69.6,53.7,69.6,53.7z"/>
      </g>
      <g fill="#ffd300">
        <path d="M82.2,52.4c0,0,0.2,0.3,0.4,0.8c0.1,0.2,0.2,0.5,0.2,0.8c0.1,0.3,0.1,0.6,0.2,0.9c0.1,0.6,0.2,1.2,0.3,1.7     c0.1,0.5,0.2,0.8,0.2,0.8s-0.1,0-0.2-0.1c-0.2-0.1-0.4-0.2-0.6-0.4c-0.2-0.2-0.4-0.5-0.6-0.8c-0.2-0.3-0.3-0.7-0.4-1     c-0.1-0.7-0.1-1.4,0.1-1.9C82,52.7,82.2,52.4,82.2,52.4z"/>
      </g>
      <g fill="#ffd300">
        <path d="M75.6,49.9c0,0,0.3,0,0.5,0.2c0.2,0.1,0.5,0.4,0.6,0.6c0.1,0.3,0.2,0.6,0.1,0.9c0,0.3-0.2,0.5-0.2,0.5s-0.3,0-0.5-0.2     c-0.2-0.1-0.5-0.4-0.6-0.6c-0.1-0.3-0.2-0.6-0.1-0.9C75.4,50.1,75.6,49.9,75.6,49.9z"/>
      </g>
      <g fill="#ffd300">
        <path d="M29.4,62.6c0,0,0.1,0,0.3-0.1c0.2,0,0.4,0,0.7,0c0.3,0.1,0.6,0.2,0.9,0.4c0.1,0.1,0.3,0.2,0.4,0.4     c0.1,0.1,0.3,0.3,0.4,0.5c0.1,0.2,0.2,0.4,0.3,0.5c0.1,0.2,0.1,0.4,0.2,0.6c0.1,0.4,0.1,0.7,0,1c-0.1,0.3-0.2,0.5-0.3,0.7     c-0.1,0.1-0.2,0.2-0.2,0.2s0-0.1-0.1-0.3c0-0.2-0.1-0.4-0.2-0.6c-0.1-0.2-0.2-0.5-0.3-0.7c-0.1-0.2-0.3-0.5-0.4-0.8     c-0.2-0.3-0.3-0.5-0.5-0.7c-0.2-0.2-0.4-0.4-0.5-0.6c-0.2-0.2-0.3-0.3-0.5-0.4C29.5,62.7,29.4,62.6,29.4,62.6z"/>
      </g>
      <g fill="#ffd300">
        <path d="M34.4,68.1c0,0,0.2-0.2,0.5-0.2c0.3-0.1,0.7-0.1,1.1,0c0.4,0.1,0.7,0.3,1,0.5c0.2,0.2,0.4,0.5,0.4,0.5s-0.2,0.2-0.5,0.2     c-0.3,0.1-0.7,0.1-1.1,0c-0.4-0.1-0.7-0.3-1-0.5C34.5,68.4,34.4,68.1,34.4,68.1z"/>
      </g>
      <g fill="#ffd300">
        <path d="M80.4,67c0,0,0.3,0.2,0.5,0.7c0.1,0.2,0.2,0.5,0.2,0.8c0,0.3,0,0.6,0,1c-0.1,0.3-0.2,0.6-0.3,0.9     c-0.2,0.3-0.3,0.5-0.5,0.7c-0.4,0.4-0.7,0.5-0.7,0.5s0-0.4,0.1-0.8c0-0.2,0.1-0.5,0.1-0.7c0-0.3,0.1-0.5,0.2-0.8     c0.1-0.3,0.1-0.5,0.2-0.8c0.1-0.3,0.1-0.5,0.2-0.7C80.3,67.3,80.4,67,80.4,67z"/>
      </g>
      <g fill="#ffd300">
        <path d="M85,66.2c0,0,0.4,0.1,1,0.2c0.3,0,0.6,0.1,0.9,0.1c0.3,0,0.7,0,1.1,0.1c0.2,0,0.4,0,0.6,0.1c0.2,0,0.4,0.1,0.5,0.1     c0.2,0,0.3,0,0.4,0c0.1,0,0.2,0,0.3,0c0.2-0.1,0.3-0.2,0.3-0.4c0-0.1,0-0.3,0-0.3c0,0,0.1,0,0.3,0.2c0.1,0.2,0.2,0.6,0,0.9     c-0.1,0.2-0.3,0.3-0.5,0.5c-0.2,0.1-0.4,0.2-0.7,0.2c-0.4,0.1-0.8,0-1.2,0c-0.4,0-0.8-0.1-1.2-0.2c-0.4-0.1-0.7-0.3-1-0.5     c-0.3-0.2-0.4-0.4-0.5-0.6C85,66.3,85,66.2,85,66.2z"/>
      </g>
      <g fill="#ffd300">
        <path d="M43,57.1c0,0,0.3,0,0.8,0.1c0.2,0.1,0.5,0.2,0.7,0.3c0.2,0.1,0.5,0.4,0.7,0.6c0.4,0.4,0.7,1,0.8,1.5     c0.1,0.5,0.1,0.8,0.1,0.8s-0.3-0.2-0.7-0.4c-0.4-0.3-0.8-0.6-1.1-1c-0.2-0.2-0.4-0.4-0.5-0.6c-0.2-0.2-0.3-0.4-0.4-0.6     C43.1,57.4,43,57.1,43,57.1z"/>
      </g>
      <g fill="#ffd300">
        <path d="M39.6,58.5c0,0,0.2,0,0.5,0c0.2,0,0.4,0.1,0.6,0.3c0.1,0.1,0.2,0.4,0.3,0.6c0,0.2,0,0.5,0,0.5S40.7,60,40.5,60     c-0.2,0-0.5-0.1-0.7-0.3c-0.2-0.2-0.3-0.5-0.3-0.7C39.5,58.7,39.6,58.5,39.6,58.5z"/>
      </g>
      <g fill="#ffd300">
        <path d="M32.6,45.5c0,0,0.3,0,0.7,0.2c0.4,0.2,0.9,0.6,1.2,1.2c0.1,0.1,0.1,0.3,0.1,0.5c0,0.2,0,0.3,0,0.5c0,0.3-0.1,0.6-0.3,0.8     c-0.3,0.4-0.7,0.5-0.7,0.5c0,0,0-0.3,0-0.7c0-0.2-0.1-0.3-0.1-0.5c0-0.1-0.1-0.2-0.1-0.3c0-0.1-0.1-0.2-0.1-0.3     c-0.2-0.4-0.4-0.8-0.5-1.2C32.7,45.9,32.6,45.5,32.6,45.5z"/>
      </g>
      <g fill="#ffd300">
        <path d="M29.1,42.3c0,0,0,0.5-0.3,1.1c-0.2,0.6-0.6,1.4-1.3,2c-0.3,0.3-0.8,0.6-1.2,0.7c-0.4,0.2-0.8,0.2-1.2,0.2     c-0.4,0-0.6-0.1-0.8-0.2C24.1,46.1,24,46,24,46s0.5-0.1,1-0.4c0.3-0.1,0.5-0.3,0.8-0.5c0.3-0.2,0.6-0.4,0.8-0.7     c0.6-0.5,1.1-1.1,1.6-1.5C28.7,42.6,29.1,42.3,29.1,42.3z"/>
      </g>
      <g fill="#ffd300">
        <path d="M52.6,43.2c0,0,0.2,0.2,0.4,0.6c0.2,0.4,0.3,0.8,0.4,1.3c0,0.5-0.1,1-0.2,1.4C53,46.8,52.8,47,52.8,47s-0.2-0.3-0.3-0.6     c-0.2-0.4-0.3-0.8-0.3-1.3c0-0.5,0-1,0.2-1.3C52.4,43.4,52.6,43.2,52.6,43.2z"/>
      </g>
      <g fill="#ffd300">
        <path d="M57.5,36.2c0,0,0.2,0.2,0.4,0.5c0.2,0.3,0.3,0.7,0.3,1.2c0,0.1,0,0.2,0,0.2c0,0.1,0,0.1,0,0.1c0,0-0.1,0-0.1,0     c0,0,0,0.1,0.1,0.1c0.1,0.1,0.3,0.2,0.4,0.3c0.1,0.1,0,0.2,0,0.2c0,0-0.1,0-0.2,0c-0.1,0-0.1,0.1-0.3,0.2c-0.1,0-0.2,0.1-0.4,0.1     c-0.2,0-0.4-0.1-0.5-0.3c-0.1-0.2-0.2-0.3-0.2-0.5c0-0.1,0-0.3,0-0.4c0-0.4,0.1-0.9,0.3-1.2C57.3,36.4,57.5,36.2,57.5,36.2z"/>
      </g>
      <g fill="#ffd300">
        <path d="M65.1,40.4c0,0,0,0.3-0.2,0.5c-0.1,0.2-0.3,0.5-0.5,0.6c-0.2,0.2-0.5,0.2-0.8,0.2c-0.3,0-0.5,0-0.5,0s0-0.3,0.1-0.5     c0.1-0.3,0.3-0.5,0.5-0.7c0.3-0.2,0.6-0.2,0.9-0.2C64.9,40.3,65.1,40.4,65.1,40.4z"/>
      </g>
      <g fill="#ffd300">
        <path d="M63.2,66.3c0,0,0.5-0.2,1.4-0.4c0.4-0.1,0.9-0.1,1.4-0.2c0.3,0,0.5,0,0.8-0.1c0.3,0,0.5,0,0.7,0c0.2,0,0.4-0.1,0.6-0.2     c0.2-0.1,0.4-0.2,0.6-0.3c0.4-0.3,0.8-0.6,1.1-0.8c0.7-0.5,1.1-0.8,1.1-0.8s-0.1,0.6-0.6,1.3c-0.2,0.4-0.5,0.8-0.9,1.1     c-0.2,0.2-0.4,0.4-0.7,0.6c-0.3,0.2-0.7,0.3-1,0.3c-0.7,0-1.1,0-1.7-0.1c-0.5,0-1-0.1-1.4-0.2C63.8,66.5,63.2,66.3,63.2,66.3z"/>
      </g>
      <g fill="#ffd300">
        <path d="M67.9,61.2c0,0-0.2,0.3-0.6,0.5c-0.4,0.2-0.9,0.5-1.4,0.6c-0.5,0.1-1.1,0.2-1.5,0.2c-0.4,0-0.8-0.1-0.8-0.1     s0.2-0.3,0.5-0.6c0.3-0.3,0.9-0.6,1.4-0.8c0.6-0.2,1.2-0.2,1.6-0.1C67.6,61,67.9,61.2,67.9,61.2z"/>
      </g>
      <g fill="#ffd300">
        <path d="M88.8,63.1c0,0,0.3-0.2,0.8-0.3c0.5-0.1,1-0.1,1.6-0.1c0.6,0.1,1.1,0.2,1.6,0.4c0.4,0.2,0.7,0.4,0.7,0.4     s-0.3,0.2-0.7,0.3C92.3,64,91.7,64,91.1,64c-0.6-0.1-1.2-0.2-1.6-0.4C89.1,63.4,88.8,63.1,88.8,63.1z"/>
      </g>
      <g fill="#ffd300">
        <path d="M11.7,63.1c0,0,0.4,0.2,0.8,0.7c0.2,0.2,0.4,0.6,0.5,0.9c0.1,0.2,0.1,0.4,0.2,0.6c0,0.2,0,0.5,0,0.7     c-0.1,0.5-0.2,0.9-0.6,1.3c-0.1,0.2-0.3,0.3-0.5,0.4c-0.2,0.1-0.4,0.2-0.5,0.2c-0.3,0.1-0.5,0.1-0.7,0.2     c-0.2,0.1-0.2,0.1-0.2,0.1c0,0,0-0.1,0.1-0.3c0.1-0.2,0.3-0.4,0.5-0.6c0.1-0.1,0.2-0.2,0.3-0.3c0.1-0.1,0.1-0.2,0.2-0.3     c0.1-0.2,0.2-0.5,0.2-0.8c0.1-0.3,0-0.6,0-0.9c0-0.3-0.1-0.6-0.1-0.9C11.7,63.5,11.7,63.1,11.7,63.1z"/>
      </g>
      <g fill="#ffd300">
        <path d="M11.8,72.9c0,0,0.3-0.2,0.6-0.2c0.4-0.1,0.8-0.1,1.3,0c0.4,0.1,0.9,0.3,1.2,0.5c0.3,0.2,0.5,0.5,0.5,0.5     s-0.3,0.2-0.6,0.2c-0.4,0.1-0.8,0.1-1.3,0c-0.4-0.1-0.9-0.3-1.2-0.5C11.9,73.2,11.8,72.9,11.8,72.9z"/>
      </g>
      <g fill="#ffd300">
        <path d="M18.3,64.1c0,0,0.3-0.2,0.7-0.3c0.4-0.1,0.9-0.2,1.4-0.3c0.5,0,1,0.1,1.4,0.2c0.4,0.1,0.7,0.3,0.7,0.3s-0.2,0.2-0.6,0.4     c-0.4,0.2-0.9,0.3-1.5,0.3c-0.5,0-1.1-0.1-1.5-0.3C18.6,64.3,18.3,64.1,18.3,64.1z"/>
      </g>
      <g fill="#ffd300">
        <path d="M29.5,56.4c0,0,0.1,0,0.2-0.1c0.1,0,0.3,0,0.5,0c0.2,0,0.4,0.1,0.7,0.3c0.2,0.1,0.4,0.4,0.6,0.6c0.1,0.1,0.1,0.2,0.2,0.4     c0.1,0.1,0.1,0.3,0.1,0.4c0,0.3,0,0.5-0.1,0.7c-0.1,0.4-0.4,0.6-0.4,0.6S31.2,59,31,58.7c-0.1-0.1-0.2-0.3-0.3-0.4     c-0.1-0.1-0.2-0.3-0.3-0.4c-0.1-0.2-0.2-0.3-0.3-0.5c-0.1-0.1-0.2-0.3-0.3-0.4c-0.1-0.1-0.1-0.3-0.2-0.4     C29.6,56.5,29.5,56.4,29.5,56.4z"/>
      </g>
      <g fill="#ffd300">
        <path d="M49.2,69.7c0,0,0,0.4-0.3,0.8c-0.2,0.2-0.4,0.4-0.7,0.6l-0.3,0.1c-0.1,0-0.1,0-0.2,0.1l-0.4,0.1l-0.3,0l-0.2,0     c-0.1,0-0.3,0-0.4,0c-0.3,0-0.6-0.1-0.8-0.1c-0.5-0.1-0.8-0.3-0.8-0.3s0.3-0.2,0.7-0.4c0.2-0.1,0.5-0.2,0.8-0.3     c0.1,0,0.3-0.1,0.4-0.1l0.2,0l0,0l0,0c0,0,0.1,0-0.1,0l0,0l0,0l0,0l0.1,0l0.1,0l0.4-0.1c0.1,0,0.1,0,0.2,0l0.1,0l0.1,0     c0,0,0.1,0,0,0l0,0c0.2,0,0.4-0.1,0.7-0.1C48.9,69.8,49.2,69.7,49.2,69.7z"/>
      </g>
      <g fill="#ffd300">
        <path d="M74.9,71.2c0,0,0.2-0.3,0.5-0.4c0.2-0.1,0.4-0.1,0.6-0.1c0.2,0,0.5,0.1,0.7,0.2c0.5,0.2,0.7,0.5,0.9,0.7     c0.1,0.1,0.2,0.2,0.3,0.2c0.1,0.1,0.2,0.1,0.2,0.1c0,0,0,0.1-0.1,0.2c-0.1,0.1-0.3,0.2-0.5,0.2c-0.2,0-0.5,0-0.7-0.1     c-0.2-0.1-0.4-0.2-0.5-0.2c-0.3-0.1-0.6-0.3-0.9-0.5C75.1,71.3,74.9,71.2,74.9,71.2z"/>
      </g>
    </g>
    <path fill="none" stroke="#ffd300" stroke-width="0.3119" stroke-linecap="round" stroke-miterlimit="10" d="M74.1,16.2   c3.5,1.2,4.3,2.2,4.3,2.9c0,1.1-1.7,1.5-2.3,3.3c-0.4,1.4,0.1,3,0.5,3.5c2.4,3.4,16.3-2.8,17-3.1"/>
  </g>
</svg>